<svg version="1.1" id="Layer_1" xmlns="http://www.w3.org/2000/svg" xmlns:xlink="http://www.w3.org/1999/xlink" x="0px" y="0px"
	 width="100%" viewBox="0 0 225 225" enable-background="new 0 0 225 225" xml:space="preserve">
<path fill="#E52620" opacity="1.000000" stroke="none" 
	d="
M1.219733,215.303528 
	C1.000000,147.645767 1.000000,80.291542 1.000000,12.468657 
	C2.169826,6.215625 4.830925,1.900083 11.701850,1.218676 
	C79.354225,1.000000 146.708450,1.000000 214.531342,1.000000 
	C220.501709,2.459155 225.111481,4.823587 225.781708,11.703978 
	C226.000000,79.354225 226.000000,146.708450 226.000000,214.531342 
	C224.905304,220.858673 222.101349,225.033752 215.297882,225.781372 
	C147.645767,226.000000 80.291542,226.000000 12.468657,226.000000 
	C6.100203,224.953674 1.603357,222.481766 1.219733,215.303528 
z"/>
<path fill="#FFFFFF" opacity="1.000000" stroke="none" 
	d="
M226.000000,11.517044 
	C223.057068,7.892206 219.814117,4.097401 215.121185,1.344474 
	C215.326111,1.000000 215.652222,1.000000 215.978333,1.000000 
	C219.239426,1.000000 223.990433,-0.283521 225.379654,1.329068 
	C227.067429,3.288233 225.920547,7.689392 226.000000,11.517044 
z"/>
<path fill="#FFFFFF" opacity="1.000000" stroke="none" 
	d="
M11.517044,1.000000 
	C7.933152,3.976927 3.863905,6.951554 1.347787,11.874276 
	C1.000000,11.673890 1.000000,11.347780 1.000000,11.021670 
	C1.000000,7.760571 -0.283528,3.009573 1.329064,1.620346 
	C3.288213,-0.067434 7.689392,1.079458 11.517044,1.000000 
z"/>
<path fill="#FFFFFF" opacity="1.000000" stroke="none" 
	d="
M215.482956,226.000000 
	C218.866837,222.831863 223.424057,220.325607 225.651886,215.126205 
	C226.000000,215.326111 226.000000,215.652222 226.000000,215.978333 
	C226.000000,219.239426 227.283539,223.990448 225.670944,225.379669 
	C223.711777,227.067444 219.310608,225.920547 215.482956,226.000000 
z"/>
<path fill="#FFFFFF" opacity="1.000000" stroke="none" 
	d="
M1.000000,215.482956 
	C3.861857,219.183823 6.393572,223.712021 11.871990,225.650024 
	C11.673890,226.000000 11.347780,226.000000 11.021670,226.000000 
	C7.760571,226.000000 3.009569,227.283539 1.620332,225.670944 
	C-0.067444,223.711792 1.079458,219.310608 1.000000,215.482956 
z"/>
<path fill="#FFFDFC" opacity="1.000000" stroke="none" 
	d="
M69.634232,50.115143 
	C70.120995,45.210232 72.230591,41.489071 75.666473,38.643265 
	C80.754257,34.429253 84.325546,35.302635 86.835899,41.381199 
	C89.964325,48.956360 91.402817,57.002254 92.822563,65.015099 
	C95.435089,79.759895 97.444412,94.600838 98.851334,109.504967 
	C99.174248,112.925766 100.716171,113.254677 103.342346,112.983185 
	C114.217697,111.858871 124.395462,108.352859 134.394882,104.121864 
	C137.140533,102.960121 136.350952,101.058884 136.093842,99.163437 
	C133.254654,78.232826 130.338440,57.312416 127.583267,36.370808 
	C126.947357,31.537338 125.152466,26.650774 127.919182,21.778593 
	C129.512527,18.972719 130.656555,16.248768 134.707336,16.220501 
	C138.735535,16.192390 140.782013,18.310741 142.341522,21.506689 
	C146.243622,29.503471 148.083160,38.121475 149.942566,46.730377 
	C153.350906,62.510830 155.616394,78.485756 157.676666,94.479523 
	C158.061905,97.470024 159.178497,98.417366 161.771683,98.766571 
	C163.575699,99.009506 165.333557,99.577095 167.124786,99.936111 
	C176.112656,101.737579 176.740143,106.962440 173.708527,115.485512 
	C172.167679,119.817482 169.212143,123.771378 164.360352,125.302330 
	C161.844879,126.096077 162.231491,127.945953 162.309357,129.705780 
	C162.854568,142.024445 163.986938,154.254242 167.625565,166.131927 
	C169.348572,171.756348 165.391495,182.702744 160.546524,186.199844 
	C156.100388,189.409012 151.064758,188.048553 148.725693,182.744339 
	C145.051575,174.412704 144.114731,165.432892 143.109543,156.519714 
	C142.252426,148.919617 141.731812,141.280777 141.121216,133.654343 
	C140.995972,132.089737 141.100952,130.646332 138.832993,130.688782 
	C128.512024,130.882050 118.193649,130.961700 108.389534,134.929382 
	C103.531334,136.895477 101.161469,139.840744 101.796631,145.587372 
	C103.294945,159.143112 104.179672,172.766388 105.333740,186.360550 
	C105.950195,193.622040 104.520805,200.563522 102.144104,207.364822 
	C100.970573,210.723053 98.808861,212.328262 95.041916,212.385544 
	C91.205719,212.443909 89.185043,210.666977 87.905724,207.410751 
	C84.020576,197.521957 83.075058,187.061081 82.145386,176.640335 
	C81.229271,166.371414 80.697571,156.065781 80.153984,145.767975 
	C80.038071,143.572144 79.487640,142.970993 77.248932,143.305511 
	C72.151489,144.067245 66.995255,144.432129 61.893444,145.169540 
	C59.689545,145.488113 58.516308,144.819855 57.646652,142.815216 
	C56.591122,140.382126 55.173412,138.109085 54.021435,135.714355 
	C50.831455,129.083054 52.955498,123.025360 59.664211,120.044456 
	C61.759003,119.113678 64.089081,118.682236 66.339806,118.139893 
	C69.474930,117.384460 73.883018,119.642937 75.581314,116.885376 
	C76.916306,114.717743 75.436363,110.788322 75.138741,107.647972 
	C73.333656,88.601326 71.509033,69.556534 69.634232,50.115143 
z"/>
</svg>