<svg version="1.1" id="Layer_1" xmlns="http://www.w3.org/2000/svg" xmlns:xlink="http://www.w3.org/1999/xlink" x="0px" y="0px"
	 width="100%" viewBox="0 0 225 225" enable-background="new 0 0 225 225" xml:space="preserve">
<path fill="#BF16E4" opacity="1.000000" stroke="none" 
	d="
M157.000000,226.000000 
	C104.666672,226.000000 52.833340,226.000000 1.000007,226.000000 
	C1.000005,151.000000 1.000005,76.000015 1.000002,1.000017 
	C75.999992,1.000011 150.999985,1.000011 225.999969,1.000006 
	C225.999985,75.999985 225.999985,150.999969 226.000000,225.999969 
	C203.166672,226.000000 180.333328,226.000000 157.000000,226.000000 
M151.859299,186.905853 
	C154.843185,186.608582 158.382980,187.229340 160.698029,185.827499 
	C165.902893,182.675827 168.682526,171.721405 167.634293,165.764923 
	C165.535248,153.837280 163.942749,141.815216 162.442902,129.794464 
	C162.266174,128.378113 163.763168,126.546379 164.859848,125.217018 
	C167.963013,121.455498 172.171036,118.308769 174.276566,114.088127 
	C177.719589,107.186478 174.900803,102.195763 167.581146,100.066345 
	C164.451401,99.155846 161.254272,98.476959 158.661362,97.834877 
	C155.685028,80.360802 153.198715,63.392517 149.773376,46.615955 
	C147.958115,37.725174 144.861115,29.036037 141.657150,20.513613 
	C140.000244,16.106327 133.345749,14.382280 130.939377,17.505789 
	C128.651794,20.475126 126.808395,24.540318 126.640968,28.209064 
	C126.402283,33.439510 127.886650,38.745766 128.607819,44.023357 
	C131.108948,62.327290 133.528549,80.642860 136.157425,98.928375 
	C136.622681,102.164497 135.744049,103.866486 132.669785,104.865326 
	C126.819695,106.766090 121.126373,109.211327 115.196960,110.787018 
	C110.174942,112.121574 104.911713,112.548447 99.806297,113.368790 
	C97.405830,96.723465 95.465149,81.047119 92.775497,65.500336 
	C91.309410,57.025955 88.935036,48.653782 86.274185,40.461609 
	C84.676437,35.542511 81.579071,34.763710 77.241348,37.576447 
	C72.391731,40.721123 69.219147,45.221420 69.780838,51.309963 
	C71.371346,68.550430 73.172256,85.771393 74.843811,103.004539 
	C75.316528,107.878082 75.629539,112.767113 75.975929,117.145241 
	C70.205711,118.104774 64.954514,118.304466 60.188274,119.927925 
	C52.980469,122.383011 50.759174,128.891327 54.002644,135.702911 
	C55.075092,137.955139 55.966251,140.406693 57.529068,142.274490 
	C58.657089,143.622635 60.792191,144.972046 62.420315,144.905533 
	C68.169502,144.670700 73.893791,143.826447 79.715820,143.203827 
	C80.522697,154.614517 80.831268,165.781509 82.231972,176.809769 
	C83.545677,187.152985 85.855431,197.383896 88.064224,207.591248 
	C88.807816,211.027542 91.516609,212.481125 95.271965,212.379044 
	C98.814774,212.282761 101.316971,210.817276 101.968330,207.584503 
	C103.367538,200.640137 105.335106,193.564560 105.140121,186.596725 
	C104.754181,172.804428 103.304909,159.021637 101.787605,145.291016 
	C101.164803,139.655045 103.673729,136.876556 108.254303,135.017105 
	C118.663765,130.791458 129.556213,130.643173 140.355286,130.860886 
	C141.951126,144.165176 143.080811,157.087189 145.221603,169.839462 
	C146.181915,175.559830 149.166275,180.940414 151.859299,186.905853 
z"/>
<path fill="#FEFCFF" opacity="1.000000" stroke="none" 
	d="
M151.545746,186.690521 
	C149.166275,180.940414 146.181915,175.559830 145.221603,169.839462 
	C143.080811,157.087189 141.951126,144.165176 140.355286,130.860886 
	C129.556213,130.643173 118.663765,130.791458 108.254303,135.017105 
	C103.673729,136.876556 101.164803,139.655045 101.787605,145.291016 
	C103.304909,159.021637 104.754181,172.804428 105.140121,186.596725 
	C105.335106,193.564560 103.367538,200.640137 101.968330,207.584503 
	C101.316971,210.817276 98.814774,212.282761 95.271965,212.379044 
	C91.516609,212.481125 88.807816,211.027542 88.064224,207.591248 
	C85.855431,197.383896 83.545677,187.152985 82.231972,176.809769 
	C80.831268,165.781509 80.522697,154.614517 79.715820,143.203827 
	C73.893791,143.826447 68.169502,144.670700 62.420315,144.905533 
	C60.792191,144.972046 58.657089,143.622635 57.529068,142.274490 
	C55.966251,140.406693 55.075092,137.955139 54.002644,135.702911 
	C50.759174,128.891327 52.980469,122.383011 60.188274,119.927925 
	C64.954514,118.304466 70.205711,118.104774 75.975929,117.145241 
	C75.629539,112.767113 75.316528,107.878082 74.843811,103.004539 
	C73.172256,85.771393 71.371346,68.550430 69.780838,51.309963 
	C69.219147,45.221420 72.391731,40.721123 77.241348,37.576447 
	C81.579071,34.763710 84.676437,35.542511 86.274185,40.461609 
	C88.935036,48.653782 91.309410,57.025955 92.775497,65.500336 
	C95.465149,81.047119 97.405830,96.723465 99.806297,113.368790 
	C104.911713,112.548447 110.174942,112.121574 115.196960,110.787018 
	C121.126373,109.211327 126.819695,106.766090 132.669785,104.865326 
	C135.744049,103.866486 136.622681,102.164497 136.157425,98.928375 
	C133.528549,80.642860 131.108948,62.327290 128.607819,44.023357 
	C127.886650,38.745766 126.402283,33.439510 126.640968,28.209064 
	C126.808395,24.540318 128.651794,20.475126 130.939377,17.505789 
	C133.345749,14.382280 140.000244,16.106327 141.657150,20.513613 
	C144.861115,29.036037 147.958115,37.725174 149.773376,46.615955 
	C153.198715,63.392517 155.685028,80.360802 158.661362,97.834877 
	C161.254272,98.476959 164.451401,99.155846 167.581146,100.066345 
	C174.900803,102.195763 177.719589,107.186478 174.276566,114.088127 
	C172.171036,118.308769 167.963013,121.455498 164.859848,125.217018 
	C163.763168,126.546379 162.266174,128.378113 162.442902,129.794464 
	C163.942749,141.815216 165.535248,153.837280 167.634293,165.764923 
	C168.682526,171.721405 165.902893,182.675827 160.698029,185.827499 
	C158.382980,187.229340 154.843185,186.608582 151.545746,186.690521 
z"/>
</svg>