<svg version="1.1" id="Layer_1" xmlns="http://www.w3.org/2000/svg" xmlns:xlink="http://www.w3.org/1999/xlink" x="0px" y="0px"
	 width="100%" viewBox="0 0 1000 267" enable-background="new 0 0 1000 267" xml:space="preserve">
<path fill="#FFFFFF" opacity="1.000000" stroke="none" 
	d="
M667.000000,268.000000 
	C446.166656,268.000000 225.833328,267.988861 5.500044,268.093445 
	C1.750786,268.095245 0.899484,267.249817 0.904853,263.499878 
	C1.028214,177.333374 1.026066,91.166626 0.904112,5.000136 
	C0.899265,1.575864 1.576590,0.904968 5.000029,0.906012 
	C335.666656,1.006849 666.333313,1.006849 997.000000,0.906012 
	C1000.423401,0.904968 1001.100769,1.575866 1001.095886,5.000135 
	C1000.973999,91.333298 1000.974060,177.666702 1001.095947,263.999878 
	C1001.100769,267.424133 1000.423889,268.098969 996.999878,268.095367 
	C887.166687,267.979523 777.333313,268.000000 667.000000,268.000000 
z"/>
<path fill="#E5261F" opacity="1.000000" stroke="none" 
	d="
M911.254333,191.664368 
	C908.278870,198.329559 906.386597,205.113281 903.367981,211.556747 
	C899.032959,220.810120 892.306641,227.462234 883.572937,231.978897 
	C877.756592,234.986847 866.837646,233.374878 860.938782,222.797577 
	C858.395630,218.237366 856.464661,213.476654 855.185974,208.436722 
	C854.497559,205.723312 858.002991,197.480255 860.230591,196.342148 
	C861.792236,195.544296 862.472229,196.745804 862.904053,197.697418 
	C865.126099,202.594345 868.792969,206.321503 872.523743,210.023102 
	C877.262207,214.724564 882.973267,214.108246 886.889587,208.418396 
	C890.893066,202.601929 892.775452,195.898361 895.040833,189.320648 
	C900.024231,174.851028 895.374756,160.121185 897.443359,144.737045 
	C890.528381,149.593719 886.587952,155.959442 879.709534,159.167526 
	C861.248352,167.777832 848.974670,163.078674 844.898621,143.354782 
	C840.997498,124.477318 847.385864,109.471191 860.220764,96.203911 
	C866.203491,90.019646 872.348755,83.784996 879.557068,79.381416 
	C886.586060,75.087303 894.192993,70.521950 903.659058,71.992661 
	C904.177185,72.279915 904.336182,72.393181 904.664307,72.745483 
	C905.228516,74.300385 906.991516,74.714378 907.058044,76.616943 
	C906.935791,78.631226 907.574463,80.075737 908.620056,81.732056 
	C910.917053,85.951576 911.352173,90.454193 911.793823,94.649323 
	C912.858521,104.762344 913.763855,114.906570 914.187561,125.107925 
	C914.716492,137.846054 915.652405,150.622787 914.689209,163.285858 
	C914.253479,169.014420 914.840149,175.056412 912.396790,180.863159 
	C911.408630,183.211639 911.988159,187.039566 911.906006,190.607086 
	C911.720032,191.177536 911.606689,191.336472 911.254333,191.664368 
z"/>
<path fill="#E5261F" opacity="1.000000" stroke="none" 
	d="
M661.995850,145.257690 
	C660.535461,141.297150 660.832947,137.605713 661.076233,134.013046 
	C661.287292,130.895523 659.398071,130.262619 657.505371,131.140167 
	C654.012146,132.759842 650.230469,131.026016 646.864258,132.630417 
	C646.010498,133.037338 645.444458,133.011795 644.980591,131.961243 
	C643.734802,129.139359 641.814880,126.503868 641.128906,123.568550 
	C639.572571,116.909325 643.141541,112.628220 650.077026,111.977936 
	C652.177429,111.780998 654.247437,111.279221 656.342407,110.999794 
	C659.182983,110.620926 658.090637,108.379372 657.872925,107.122009 
	C656.248108,97.738724 656.309692,88.175171 654.846130,78.812851 
	C654.087646,73.960686 654.616821,69.025986 653.170593,64.220169 
	C652.051270,60.500824 653.858276,57.113747 656.262756,54.297813 
	C660.702942,49.097843 664.662292,49.994717 667.109558,56.361816 
	C670.649292,65.571205 671.486572,75.301582 672.987244,84.907562 
	C674.042969,91.665260 675.251404,98.418167 675.842712,105.220924 
	C676.119873,108.409042 677.784790,108.320717 679.746338,107.925377 
	C686.889099,106.485825 693.890137,104.498238 700.627991,101.698029 
	C702.250916,101.023560 703.096497,100.416801 702.540588,97.757675 
	C700.841248,89.628380 700.149170,81.291260 698.989746,73.045624 
	C697.743408,64.182396 696.303833,55.344959 695.169922,46.467983 
	C694.718933,42.937088 696.021057,39.642723 698.494751,37.119637 
	C700.971558,34.593357 705.048462,35.692829 707.022522,39.184303 
	C711.830627,47.688225 713.253296,57.225510 714.896729,66.599655 
	C716.555725,76.062035 718.674500,85.489883 718.995789,95.153969 
	C719.034424,96.317337 719.364807,96.910011 720.678711,97.034172 
	C722.280273,97.185516 723.854492,97.651970 725.433228,98.014282 
	C731.859131,99.488976 734.416443,106.379478 730.566406,111.903793 
	C729.730652,113.102882 728.668396,114.841492 727.833435,115.234184 
	C719.560181,119.125221 723.065369,126.461517 723.392883,132.112442 
	C723.690857,137.253754 725.045959,142.588242 726.680298,147.747116 
	C728.439026,153.298294 725.358948,158.381485 721.824341,162.451889 
	C718.887756,165.833572 713.165833,164.186920 711.432373,159.909195 
	C709.402588,154.900406 708.797974,149.531204 708.062439,144.247192 
	C707.137207,137.601288 706.579529,130.899246 706.049072,124.206696 
	C705.907410,122.418640 705.264954,121.969597 703.633850,121.980736 
	C697.866150,122.020134 692.077209,121.714157 686.424377,123.246651 
	C678.259521,125.460159 676.744446,129.995422 678.134033,139.705063 
	C679.826599,151.531891 681.958801,163.554031 678.925476,175.532501 
	C678.164856,178.536041 677.844360,182.003693 673.085388,182.118591 
	C668.616821,182.226486 666.998962,179.948792 665.961609,176.257263 
	C663.154053,166.266479 661.958069,156.081909 661.995850,145.257690 
z"/>
<path fill="#E5261F" opacity="1.000000" stroke="none" 
	d="
M759.806274,70.792328 
	C764.958984,72.674728 768.997009,78.164238 768.999023,83.052643 
	C769.002502,91.549118 769.573608,100.099503 768.781982,108.521576 
	C768.316956,113.469109 768.541626,118.768204 769.641113,122.875443 
	C770.599548,126.455902 767.941467,130.885651 771.803345,133.944000 
	C772.632324,134.600510 772.125305,137.004639 771.242310,138.628464 
	C770.767944,139.500916 770.212830,141.354538 772.089355,141.896133 
	C773.392090,142.272125 774.689941,142.056030 775.656555,140.812836 
	C786.552246,126.800247 794.426025,111.415459 798.121216,93.886009 
	C799.576111,86.984245 799.179626,79.908936 800.950562,73.104256 
	C801.275024,71.857414 801.747864,70.642891 802.229187,69.444382 
	C803.370850,66.602051 805.392944,65.150230 808.561340,64.946877 
	C811.966064,64.728363 813.550171,66.692276 815.065247,69.237892 
	C818.411560,74.860420 819.049927,81.229263 819.917542,87.434265 
	C822.213928,103.858063 822.215088,120.413872 822.023560,137.423828 
	C822.612122,138.633072 822.735352,139.454193 822.242920,140.728775 
	C821.698792,144.369247 823.173035,147.114166 824.449646,149.937439 
	C827.030029,155.643616 827.412598,161.320312 823.667358,166.708221 
	C820.446594,171.341599 814.912598,171.108368 812.060059,166.179413 
	C808.778625,160.509567 806.930725,154.281616 806.060242,147.843399 
	C805.139893,141.036743 804.676270,134.168671 803.983276,127.330444 
	C803.908447,126.591995 804.393188,125.527977 803.279236,125.229355 
	C802.063293,124.903397 801.466797,125.894981 801.078735,126.768242 
	C800.292419,128.537674 799.687988,130.386963 798.965881,132.186142 
	C795.591248,140.593887 789.781555,147.570007 785.418213,155.366440 
	C783.260803,159.221222 780.185974,161.276810 776.955566,163.562454 
	C767.801758,170.039139 761.850159,165.726608 757.999756,158.622971 
	C754.413330,152.006363 753.041382,144.597900 752.069885,137.238693 
	C750.297302,123.810036 749.507996,110.295944 750.026062,96.738678 
	C750.109863,94.546425 749.426453,92.373634 748.820679,90.533142 
	C746.227722,82.655411 750.224365,77.676514 755.490784,73.023430 
	C756.330017,72.281990 756.850891,71.082199 758.539978,70.980965 
	C759.091431,70.847511 759.295654,70.737289 759.806274,70.792328 
z"/>
<path fill="#2F2F41" opacity="1.000000" stroke="none" 
	d="
M444.738831,148.234833 
	C456.925079,158.716980 471.083496,157.176300 482.833313,150.123932 
	C485.856750,148.309235 486.881714,145.648285 486.838196,142.919067 
	C486.776642,139.062775 488.242218,135.442719 487.974487,131.653885 
	C487.693420,127.675949 490.608032,129.247452 492.396881,129.034546 
	C494.465210,128.788391 495.988739,128.767090 496.121185,131.943298 
	C496.467865,140.257568 494.432037,148.425354 494.989655,156.720108 
	C495.070251,157.918610 494.858429,158.564011 493.325134,159.098557 
	C476.321472,165.026398 458.928314,167.795670 441.440521,162.570206 
	C425.938019,157.937927 416.194275,146.443039 412.219086,131.078476 
	C407.790344,113.960884 407.978088,96.522316 414.069580,79.686668 
	C420.122955,62.956440 432.532715,54.450611 450.008453,51.861134 
	C463.158661,49.912590 475.645660,52.622574 488.320251,54.941933 
	C492.595612,55.724293 494.442841,57.445808 494.111664,62.094402 
	C493.662781,68.395088 494.000183,74.751747 493.998962,81.084396 
	C493.998688,82.571152 494.258820,84.486198 491.886566,83.927345 
	C490.195099,83.528854 487.870667,85.620590 486.813019,81.907516 
	C485.718292,78.064339 486.551147,74.125114 485.173645,70.318810 
	C484.502686,68.464890 483.843262,66.983017 482.265259,66.068245 
	C472.404877,60.352089 461.854370,58.826916 451.403870,63.416058 
	C442.087677,67.507118 437.999084,76.239525 436.066528,85.726631 
	C432.719299,102.158661 432.562744,118.652855 437.123627,134.906738 
	C438.474365,139.720459 441.525330,143.893417 444.738831,148.234833 
z"/>
<path fill="#2F2F41" opacity="1.000000" stroke="none" 
	d="
M87.853577,147.381531 
	C88.650719,142.001572 89.748543,137.018692 89.859291,132.013992 
	C89.939796,128.375809 91.957344,129.052490 94.026718,128.995132 
	C96.212402,128.934586 98.003403,128.569122 98.122612,132.077362 
	C98.404961,140.386795 96.439873,148.557526 96.998138,156.849411 
	C97.086960,158.168594 96.624168,158.599060 95.197601,159.108902 
	C78.369568,165.123138 61.090382,167.722412 43.788490,162.703934 
	C28.099010,158.153168 18.187441,146.573212 14.201507,130.965820 
	C9.826420,113.834648 9.948393,96.386581 16.094463,79.584160 
	C22.188288,62.924576 34.379398,54.483459 52.110905,51.856434 
	C65.265961,49.907440 77.742149,52.690605 90.416504,54.953293 
	C94.735344,55.724316 96.425362,57.636913 96.106567,62.190502 
	C95.677055,68.325645 96.019958,74.513565 95.985451,80.678581 
	C95.976875,82.211563 96.604622,84.403358 93.782944,83.958977 
	C91.910728,83.664139 89.522636,85.400642 88.710167,81.314903 
	C87.980530,77.645699 88.595085,73.863182 87.172249,70.222885 
	C86.458092,68.395699 85.770973,66.975029 84.181953,66.044487 
	C74.489471,60.368481 64.151878,58.975330 53.769268,63.228008 
	C44.203503,67.146111 40.111393,75.929161 38.133232,85.320290 
	C34.645828,101.876366 34.592545,118.539330 39.055855,135.002686 
	C42.137939,146.371262 52.920330,155.692352 64.406029,155.830276 
	C72.872765,155.931961 81.215889,154.084930 87.853577,147.381531 
z"/>
<path fill="#2F2F41" opacity="1.000000" stroke="none" 
	d="
M521.000000,117.219604 
	C522.181946,107.014801 523.434937,97.234505 531.350464,90.221703 
	C538.478943,83.906219 547.017395,82.430038 556.273438,83.609138 
	C561.160889,84.231750 565.718750,85.317558 569.837280,88.263809 
	C576.160706,92.787323 579.447266,99.298622 580.606262,106.464989 
	C582.810608,120.095551 583.687073,133.848892 579.015320,147.299789 
	C575.110229,158.543564 566.871277,164.493454 554.351013,164.963882 
	C546.986145,165.240601 539.837646,164.886551 533.431458,160.075836 
	C526.073486,154.550323 523.781494,146.719452 521.992798,138.433441 
	C520.511108,131.569962 521.107971,124.617683 521.000000,117.219604 
z"/>
<path fill="#2F2F41" opacity="1.000000" stroke="none" 
	d="
M235.106979,162.187866 
	C235.268936,159.093185 234.425018,158.523926 232.038849,159.962540 
	C227.002609,162.998840 221.796082,165.093826 215.617813,165.105164 
	C200.256332,165.133316 196.326126,156.573257 195.075378,145.002731 
	C194.638077,140.957352 194.914764,136.855164 195.939423,132.780197 
	C197.929520,124.865730 203.908096,119.433945 212.048920,117.926445 
	C217.466446,116.923248 222.873901,116.826027 228.288849,117.072350 
	C232.114075,117.246368 233.316101,115.777367 233.047256,112.135666 
	C232.722183,107.732170 233.342606,103.298447 232.049805,98.916977 
	C230.624908,94.087791 226.443344,91.514389 221.498169,92.804428 
	C219.783051,93.251846 218.034424,93.571167 216.320496,94.022652 
	C212.585556,95.006531 210.231110,97.104057 209.917511,101.273300 
	C209.795609,102.894203 209.561218,105.373810 207.955963,105.790710 
	C205.674942,106.383125 202.400131,107.132278 202.940796,102.465370 
	C203.264389,99.671997 203.200073,96.793121 202.955734,93.983490 
	C202.529861,89.086159 202.766388,85.517769 209.364410,85.139420 
	C219.352310,84.566689 229.278900,82.795715 239.270142,84.981216 
	C249.104736,87.132446 253.854553,93.370842 253.956009,103.173508 
	C254.119720,118.991386 254.028442,134.812286 253.975052,150.631668 
	C253.964859,153.649811 253.800491,156.199173 258.170746,156.179886 
	C260.628754,156.169052 261.161713,158.419220 261.077698,160.876724 
	C260.978363,163.780899 259.053589,162.982010 257.603333,162.969849 
	C250.132706,162.907257 242.662903,162.745636 235.106979,162.187866 
z"/>
<path fill="#E5261F" opacity="1.000000" stroke="none" 
	d="
M962.408569,80.226761 
	C958.294495,84.485420 954.518066,88.279755 952.329163,93.844070 
	C948.850220,102.687820 952.424194,107.291817 958.470459,112.609383 
	C963.173767,116.745949 968.505493,120.257446 973.890442,123.666618 
	C983.049744,129.465317 984.760071,143.669662 978.706116,153.787247 
	C971.376404,166.036880 961.008972,172.057098 946.541809,171.089813 
	C941.176758,170.731094 937.772705,168.081985 934.990356,163.961212 
	C933.689575,162.034668 933.828674,160.571640 935.585571,158.792389 
	C938.647888,155.691040 942.261414,153.668839 946.468567,154.104553 
	C954.241943,154.909592 958.071655,150.141129 961.808838,144.643585 
	C964.007324,141.409515 962.546631,139.286011 960.049683,137.635773 
	C953.654419,133.409180 948.150330,128.164703 943.128174,122.497833 
	C936.271423,114.760735 932.399902,105.807411 931.792603,95.147072 
	C931.383789,87.970741 936.289062,84.086037 939.514832,79.368782 
	C944.315430,72.348701 950.437012,66.198166 957.845154,61.727531 
	C966.964905,56.224030 976.335327,54.784271 985.874390,60.963768 
	C988.327759,62.553082 990.523376,71.317459 988.717041,73.366089 
	C987.582153,74.653168 985.875977,73.996666 984.455261,73.962357 
	C976.576782,73.772064 969.373108,75.879059 962.408569,80.226761 
z"/>
<path fill="#2F2F41" opacity="1.000000" stroke="none" 
	d="
M154.168915,107.324753 
	C151.208542,108.238266 150.945099,110.144661 150.960739,112.518982 
	C151.044113,125.184143 151.160248,137.853333 150.908539,150.514038 
	C150.826263,154.652603 152.368698,155.745682 156.210968,156.204727 
	C158.366837,156.462296 162.622620,155.511047 162.080551,160.509079 
	C161.870605,162.444794 161.370239,163.041611 159.460724,163.031189 
	C147.462006,162.965652 135.462708,162.988052 123.463661,163.010284 
	C121.984879,163.013031 120.617989,162.891220 121.045593,160.939178 
	C121.343719,159.578262 119.707993,157.139923 122.552071,157.043640 
	C131.221191,156.750153 130.108139,150.767899 130.051666,144.988800 
	C129.900208,129.491455 129.943588,113.991280 130.044403,98.493103 
	C130.066330,95.123596 129.976822,92.690453 125.429733,92.831482 
	C123.118835,92.903152 120.425209,92.133080 120.853539,88.184830 
	C121.141129,85.533813 121.848404,84.902885 124.342209,84.949646 
	C131.839020,85.090256 139.343628,85.132103 146.837753,84.932755 
	C149.654297,84.857834 150.169830,85.952248 150.044067,88.405403 
	C149.868149,91.836937 149.999695,95.284233 149.999695,99.219948 
	C152.334396,98.419250 153.075500,96.944771 154.238281,95.619255 
	C160.006729,89.043533 166.068054,82.787750 175.895844,82.943733 
	C178.186829,82.980095 179.108170,83.430923 179.056473,85.947548 
	C178.899124,93.610397 179.037872,101.278954 178.956467,108.944176 
	C178.944885,110.034042 179.843735,111.890846 177.563278,111.959915 
	C176.128510,112.003357 174.491928,112.478249 173.471329,110.892395 
	C173.125824,110.355530 172.885834,109.749199 172.612686,109.167557 
	C168.681320,100.796379 168.671631,100.772049 160.138702,104.427467 
	C158.223846,105.247772 155.983810,105.381546 154.168915,107.324753 
z"/>
<path fill="#2F2F41" opacity="1.000000" stroke="none" 
	d="
M337.929169,133.089478 
	C333.081055,132.577911 331.317322,128.768143 329.901398,125.285797 
	C325.467529,114.381172 325.318573,103.619186 331.918823,93.242355 
	C335.686859,87.318321 341.773407,85.726395 347.809265,84.049042 
	C355.074402,82.030052 362.269257,83.422546 369.513031,84.775803 
	C372.800995,85.390045 375.453430,82.628021 378.293915,81.179611 
	C380.592163,80.007683 382.836060,78.724274 385.066681,77.426086 
	C386.735779,76.454674 387.763214,77.342323 388.963715,78.395752 
	C390.345551,79.608337 389.851624,80.575371 389.057953,81.783218 
	C388.535980,82.577591 388.468201,83.707558 387.870605,84.409164 
	C383.311493,89.761429 383.899231,94.913811 385.334045,101.846527 
	C387.462830,112.132210 387.948975,123.573143 377.876862,131.759491 
	C372.956909,135.758331 367.401215,137.612610 361.404266,137.867645 
	C356.869141,138.060516 352.176422,138.969452 347.678955,137.220123 
	C346.713654,136.844650 346.203339,137.235703 346.004364,138.290802 
	C345.568146,140.603973 343.872162,142.856308 345.947266,145.602020 
	C345.486206,146.616837 344.510468,147.039856 343.886841,146.537766 
	C338.587494,142.271240 337.162567,147.423599 335.129608,150.278793 
	C332.421387,154.082413 332.925476,157.392807 335.843414,160.607040 
	C338.438690,163.465851 340.633453,165.012283 345.337067,164.152115 
	C352.909210,162.767365 360.868225,163.288391 368.627777,164.021942 
	C372.093414,164.349579 375.165833,165.816544 374.434448,170.663757 
	C366.666168,170.321457 359.064331,170.315445 351.456360,170.304718 
	C347.702606,170.299423 345.156738,171.851807 343.343414,175.054367 
	C339.980743,180.993256 342.048553,186.297256 348.563385,188.378052 
	C354.731750,190.348236 360.806854,189.710892 366.657959,187.411896 
	C373.419922,184.754959 375.326569,179.216324 374.803406,172.092743 
	C377.768890,170.448929 379.054321,172.321426 379.992432,174.341553 
	C382.335693,179.387283 381.558960,184.057114 377.197845,189.044479 
	C383.083588,184.917542 386.034760,180.225479 386.527405,174.052444 
	C386.752930,171.226715 386.684570,168.391983 386.630066,165.562912 
	C386.501068,158.867111 384.791626,156.886978 378.131714,155.310104 
	C371.381836,153.711945 364.530518,154.576645 357.724365,154.353714 
	C355.729340,154.288376 353.696869,154.534332 351.752838,154.027542 
	C348.951172,153.297180 346.770355,151.956100 347.785278,148.170013 
	C354.999695,150.183517 362.166138,148.690338 369.231232,148.921661 
	C373.696320,149.067871 377.854858,149.820084 382.048767,151.414230 
	C387.961212,153.661636 390.994354,158.392853 391.750031,163.860107 
	C394.607574,184.533417 386.312744,197.341660 363.282867,200.072144 
	C354.576508,201.104385 346.131775,200.619598 337.819794,197.994705 
	C330.968079,195.830963 326.390076,191.412033 325.057159,184.130798 
	C324.351837,180.277786 325.976135,177.067261 328.316437,174.228348 
	C329.792084,172.438324 331.505981,170.820877 333.252167,169.284088 
	C335.251709,167.524292 335.502258,166.123077 333.549377,163.931580 
	C327.086578,156.679031 325.070526,151.758270 333.118561,142.260086 
	C335.096924,139.925201 338.236969,137.998322 337.765320,133.793915 
	C342.850220,131.071396 348.132935,132.407471 353.751099,132.635376 
	C357.034271,132.607407 359.936279,132.694656 363.136810,131.769501 
	C375.705139,128.382492 380.339294,122.309624 380.715912,109.928841 
	C380.905579,103.693726 379.979340,97.670959 378.664276,91.647522 
	C378.367584,90.288483 378.108185,88.780052 376.218231,89.369347 
	C370.678589,91.096573 365.355682,89.157455 359.954071,88.561829 
	C358.433197,88.394142 356.958405,88.327118 355.307831,89.510101 
	C353.696594,90.207764 352.361908,90.289261 350.630615,90.386444 
	C341.169281,90.955994 336.005951,95.259270 333.596527,103.969940 
	C332.293060,108.682312 332.054321,113.447464 332.478119,118.239349 
	C332.815369,122.052750 333.627594,125.758537 336.839722,128.455063 
	C338.122253,129.531723 339.053955,130.964996 337.929169,133.089478 
z"/>
<path fill="#2F2F41" opacity="1.000000" stroke="none" 
	d="
M302.915039,163.000000 
	C294.426117,162.999924 286.427338,163.046585 278.430267,162.950058 
	C277.211975,162.935364 275.117554,163.991913 275.036224,161.404480 
	C274.972107,159.363876 274.299957,156.682297 277.369965,156.335175 
	C281.810364,155.833115 282.109711,153.196960 282.073853,149.506104 
	C281.907043,132.344849 281.964966,115.180931 282.033508,98.018326 
	C282.045319,95.064598 281.951630,92.917236 277.975372,92.844872 
	C274.500031,92.781624 275.041168,89.735825 274.965240,87.266342 
	C274.864563,83.991585 277.226013,85.057991 278.771729,85.038094 
	C285.602417,84.950150 292.442230,85.186607 299.263458,84.917839 
	C302.458954,84.791931 303.088379,85.833908 303.069092,88.830933 
	C302.937286,109.325562 303.020630,129.821487 302.978149,150.316864 
	C302.971649,153.456909 302.658112,156.266571 307.346680,156.239395 
	C309.962189,156.224243 310.154572,158.746078 310.040527,161.071045 
	C309.895569,164.026077 307.774719,162.742523 306.400024,162.968826 
	C305.426605,163.129059 304.405548,162.999954 302.915039,163.000000 
z"/>
<path fill="#2F2F41" opacity="1.000000" stroke="none" 
	d="
M373.919128,171.409363 
	C374.325012,166.606277 371.346436,165.195236 367.751160,165.084915 
	C360.425629,164.860153 352.758118,163.697037 345.863861,165.432541 
	C340.617004,166.753357 338.610138,165.705261 335.362091,162.192139 
	C332.060730,158.621338 330.590118,154.037903 333.506714,150.004257 
	C333.603577,149.870285 333.745728,149.769226 333.843903,149.635956 
	C335.515076,147.367233 336.824554,144.663528 338.929718,142.920181 
	C342.649170,139.839996 342.186646,147.005554 345.741028,145.965698 
	C346.698761,146.421097 347.279419,146.881409 347.949097,147.611145 
	C347.874817,151.854141 350.127502,152.925018 353.697174,153.047943 
	C361.807343,153.327240 369.939575,152.220612 378.038544,153.909149 
	C386.228210,155.616608 387.958679,157.471085 388.009888,165.880905 
	C388.053345,173.021866 388.628845,180.281708 382.994415,185.986237 
	C380.611664,188.398605 378.264740,190.898315 374.196777,191.853516 
	C374.955231,188.493225 377.686401,187.077789 378.935486,184.674500 
	C381.414001,179.905655 380.163025,174.465393 375.267822,172.034943 
	C374.471222,172.155411 374.136688,172.042831 373.919128,171.409363 
z"/>
<path fill="#2F2F41" opacity="1.000000" stroke="none" 
	d="
M302.541687,53.068016 
	C302.816956,57.282104 303.820221,61.290348 302.337708,65.089661 
	C300.493713,69.815285 296.432098,72.177452 291.076691,72.001137 
	C285.862518,71.829460 283.580139,68.599899 281.881561,64.063446 
	C278.787170,55.799152 283.799408,44.715332 293.395935,45.957535 
	C297.799042,46.527489 300.333221,49.157745 302.541687,53.068016 
z"/>
<path fill="#E5261F" opacity="1.000000" stroke="none" 
	d="
M908.901855,81.643845 
	C906.298523,81.305069 906.533508,79.275543 906.847168,77.143845 
	C907.729797,78.398140 908.350098,79.843147 908.901855,81.643845 
z"/>
<path fill="#E5261F" opacity="1.000000" stroke="none" 
	d="
M822.357666,140.975433 
	C822.034546,140.307007 822.026672,139.499603 822.030396,138.288574 
	C825.278198,138.221878 823.879272,139.549744 822.357666,140.975433 
z"/>
<path fill="#E5261F" opacity="1.000000" stroke="none" 
	d="
M904.868652,72.726013 
	C904.575806,72.893074 904.365234,72.737793 904.109985,72.342667 
	C904.313477,72.266937 904.608704,72.367218 904.868652,72.726013 
z"/>
<path fill="#E5261F" opacity="1.000000" stroke="none" 
	d="
M760.018372,70.701187 
	C759.908508,70.966171 759.704285,70.974731 759.193665,70.970505 
	C759.105408,70.529144 759.192139,69.834930 760.018372,70.701187 
z"/>
<path fill="#E5261F" opacity="1.000000" stroke="none" 
	d="
M911.273804,191.868698 
	C911.106873,191.575836 911.262268,191.365356 911.657349,191.110291 
	C911.733093,191.313766 911.632690,191.608902 911.273804,191.868698 
z"/>
<path fill="#FFFFFF" opacity="1.000000" stroke="none" 
	d="
M885.745483,128.644424 
	C882.202148,134.155731 879.440369,139.854034 873.522705,142.801208 
	C869.530640,144.789368 863.397095,141.962036 863.119385,137.488937 
	C862.565918,128.577011 864.376953,120.345154 871.465820,113.933723 
	C876.464233,109.413025 880.913879,104.331749 886.703979,100.653046 
	C889.448853,98.909157 890.463318,99.461418 891.676758,102.116394 
	C894.246216,107.737831 892.575500,112.926125 890.419739,118.101791 
	C888.989929,121.534813 887.444275,124.919571 885.745483,128.644424 
z"/>
<path fill="#FFFFFF" opacity="1.000000" stroke="none" 
	d="
M542.999756,136.171021 
	C540.510254,123.705734 542.775330,111.821144 544.250488,99.986893 
	C544.587097,97.286903 545.781433,93.425751 550.042969,92.985497 
	C554.572144,92.517601 556.775757,94.959373 558.434326,98.815353 
	C560.493713,103.602898 560.574219,108.726105 560.828186,113.641479 
	C561.347961,123.698456 561.461487,133.834122 559.943909,143.856232 
	C559.538513,146.533768 558.919922,149.369431 557.590332,151.663742 
	C556.229004,154.012833 553.930481,156.229691 550.840332,155.909424 
	C547.829834,155.597427 546.062012,153.225769 545.038330,150.550323 
	C543.330505,146.087067 542.624268,141.431335 542.999756,136.171021 
z"/>
<path fill="#FFFFFF" opacity="1.000000" stroke="none" 
	d="
M225.023865,153.999725 
	C219.804108,153.614548 216.735596,150.450577 216.077225,144.492569 
	C215.591873,140.100311 215.962799,135.711975 217.870468,131.551666 
	C220.075745,126.742340 226.662033,123.620827 231.584579,124.969040 
	C233.324692,125.445633 232.977005,126.560005 232.981628,127.616600 
	C233.013657,134.948471 233.260742,142.293427 232.901917,149.607819 
	C232.678864,154.154816 228.065674,152.715591 225.023865,153.999725 
z"/>
<path fill="#FFFFFF" opacity="1.000000" stroke="none" 
	d="
M373.599487,170.945221 
	C373.966980,171.467392 374.120056,171.735016 374.650574,171.979584 
	C377.453796,178.047684 376.071899,183.274963 370.078705,187.286346 
	C364.202576,191.219376 350.130096,193.143250 343.496765,187.150284 
	C340.573334,184.509094 338.967010,181.652954 340.851929,177.482651 
	C342.667664,173.465424 343.812927,168.768982 349.390442,169.073853 
	C357.344727,169.508652 365.507019,167.281540 373.599487,170.945221 
z"/>
<path fill="#2F2F41" opacity="1.000000" stroke="none" 
	d="
M355.227295,89.252487 
	C355.480499,86.186012 357.701752,86.929604 359.337372,87.117363 
	C362.931885,87.529984 366.489929,88.256645 370.065948,88.835785 
	C372.258209,89.190826 374.216675,88.924103 376.210571,87.616875 
	C377.972046,86.462021 379.850861,86.674255 379.968536,89.489059 
	C380.244232,96.083328 382.402924,102.381287 382.149933,109.149223 
	C381.642792,122.717224 377.843781,128.451431 364.367920,132.960541 
	C362.590881,130.775040 364.466034,129.313477 365.293396,127.646957 
	C369.764374,118.640930 369.268219,109.505257 366.046448,100.305862 
	C365.613007,99.068275 364.927917,97.899452 363.224487,97.218216 
	C361.945709,96.623306 361.181427,95.982056 360.411377,94.822807 
	C359.799866,91.733406 358.018982,90.245193 355.227295,89.252487 
z"/>
<path fill="#2F2F41" opacity="1.000000" stroke="none" 
	d="
M354.223755,133.672974 
	C349.667450,134.734711 345.179321,131.380554 340.864136,134.506393 
	C340.532715,134.746475 339.279327,133.713867 338.103760,133.350540 
	C337.752991,133.428253 337.737396,133.340210 337.689209,133.345520 
	C338.069305,132.122543 337.787201,130.831223 336.917572,130.123749 
	C328.709534,123.446243 330.341644,114.507767 331.961609,106.082962 
	C334.197784,94.453705 338.771027,90.462486 349.594849,89.000854 
	C350.515411,90.278076 349.735962,91.221832 349.164368,92.215759 
	C343.293335,102.424736 343.918457,112.765732 348.563141,123.172554 
	C349.241821,124.693169 350.076508,126.140190 351.824158,127.358063 
	C353.285797,129.370621 354.651367,131.038422 354.223755,133.672974 
z"/>
<path fill="#2F2F41" opacity="1.000000" stroke="none" 
	d="
M329.004456,184.983673 
	C328.811401,182.491898 329.368896,180.587479 330.668915,179.002838 
	C331.809418,177.612595 332.939484,175.504776 334.682190,175.551468 
	C337.069672,175.615448 335.689270,178.211349 336.296783,179.595108 
	C339.671570,187.282104 343.952698,193.855606 353.284058,194.902664 
	C354.247894,195.010818 355.197144,195.258804 356.146576,195.471176 
	C356.244995,195.493195 356.298553,195.715805 356.555786,196.163910 
	C353.880219,198.309357 351.301270,195.694672 348.739624,195.951538 
	C344.010773,196.425674 339.618134,194.793015 335.276672,193.182281 
	C331.672058,191.844894 329.022736,189.660248 329.004456,184.983673 
z"/>
<path fill="#2F2F41" opacity="1.000000" stroke="none" 
	d="
M354.436829,134.000000 
	C353.324982,132.270218 352.649994,130.540421 352.232086,128.197311 
	C360.841827,127.126862 361.972809,125.719429 363.836334,117.502953 
	C365.459290,110.347206 363.509186,103.636032 362.750977,96.397469 
	C368.333588,96.383766 367.991333,101.208946 368.784912,104.497063 
	C371.154022,114.313583 370.243774,123.807663 364.036957,132.644775 
	C361.034424,134.031891 357.967072,134.134735 354.436829,134.000000 
z"/>
<path fill="#2F2F41" opacity="1.000000" stroke="none" 
	d="
M351.952332,128.050507 
	C346.910919,127.192184 346.139404,122.394249 345.415161,119.102066 
	C343.177673,108.930603 341.483521,98.431847 349.850342,89.306335 
	C351.388885,89.000000 352.777802,89.000000 354.583344,89.000000 
	C358.265228,88.681725 360.927948,89.195450 360.965942,93.720917 
	C351.436401,95.250008 349.721405,97.366814 349.303955,107.329926 
	C349.017059,114.177071 349.712280,120.792282 352.184235,127.542511 
	C352.073700,127.918991 351.992584,128.006500 351.952332,128.050507 
z"/>
<path fill="#2F2F41" opacity="1.000000" stroke="none" 
	d="
M363.392639,194.954437 
	C363.797272,194.209396 364.206238,194.203445 364.568817,194.731110 
	C364.644867,194.841751 364.642792,195.098846 364.564392,195.207123 
	C364.188843,195.725815 363.780090,195.706665 363.392639,194.954437 
z"/>
<path fill="#FFFFFF" opacity="1.000000" stroke="none" 
	d="
M352.467194,127.963280 
	C346.069672,118.523087 347.278290,108.354637 349.387146,98.315399 
	C350.423676,93.380936 354.269592,92.162186 360.596008,93.941437 
	C361.420471,94.698051 361.881256,95.279182 362.611694,95.949554 
	C367.110535,105.043083 366.637787,114.260681 363.760712,123.435387 
	C362.188873,128.447845 358.086334,129.951920 352.467194,127.963280 
z"/>
</svg>