<svg version="1.1" id="Layer_1" xmlns="http://www.w3.org/2000/svg" xmlns:xlink="http://www.w3.org/1999/xlink" x="0px" y="0px"
	 width="100%" viewBox="0 0 225 225" enable-background="new 0 0 225 225" xml:space="preserve">
<path fill="#FFFFFF" opacity="1.000000" stroke="none" 
	d="
M135.000000,226.000000 
	C91.166672,226.000000 47.833233,225.961716 4.500243,226.083588 
	C1.517039,226.091965 0.913465,225.482300 0.917785,222.499893 
	C1.023049,149.833374 1.023048,77.166656 0.917792,4.500140 
	C0.913473,1.517829 1.517666,0.913462 4.500098,0.917783 
	C77.166611,1.023050 149.833344,1.023045 222.499847,0.917795 
	C225.482117,0.913475 226.086548,1.517622 226.082230,4.500084 
	C225.976959,77.166595 225.976959,149.833328 226.082199,222.499832 
	C226.086517,225.482071 225.484283,226.099640 222.499634,226.085083 
	C193.500305,225.943542 164.500015,226.000000 135.000000,226.000000 
z"/>
<path fill="#BF15E4" opacity="1.000000" stroke="none" 
	d="
M163.988495,19.053190 
	C165.449478,13.959157 169.317383,15.289282 172.636215,14.934464 
	C175.889359,14.586666 176.826202,16.622034 178.011108,18.911623 
	C183.811096,30.119049 185.566605,42.453728 187.955276,54.586143 
	C190.577438,67.904579 192.745026,81.310295 193.963364,94.842751 
	C194.126633,96.656235 195.013428,96.714989 196.436813,97.095703 
	C200.506241,98.184151 204.846008,98.380959 208.559677,100.770996 
	C209.710205,101.511444 210.692947,102.004715 211.008469,103.534470 
	C212.952469,112.959488 209.316147,121.102394 200.806290,124.840904 
	C198.727386,125.754189 199.050003,126.859612 199.017731,128.206970 
	C198.720795,140.608139 200.155792,152.785797 203.885071,164.649689 
	C205.831085,170.840576 202.471115,181.972321 197.374817,186.086487 
	C192.362167,190.133148 186.224640,188.447327 183.997818,182.347107 
	C180.205048,171.957001 179.201981,161.040848 177.981430,150.161331 
	C177.317184,144.240494 176.699951,138.325592 177.001648,132.358871 
	C177.087128,130.667923 176.414825,129.786346 174.696152,130.021637 
	C164.063812,131.477097 152.905609,130.049957 143.009247,135.533905 
	C139.436539,137.513672 136.730225,139.354446 137.710205,144.988800 
	C139.395737,154.679855 138.992981,164.714325 140.124344,174.528839 
	C140.829895,180.649460 140.937592,186.728592 141.005875,192.844757 
	C141.069214,198.519302 139.302536,203.790771 137.461716,209.036789 
	C136.370667,212.146088 133.851349,212.977356 130.802139,213.027176 
	C127.886513,213.074814 125.487015,212.977753 123.843140,209.713730 
	C120.072220,202.226318 119.154144,194.085907 118.103966,186.052719 
	C116.353371,172.661758 115.501312,159.164566 115.051430,145.660706 
	C114.958054,142.857742 113.639946,142.869797 111.555481,143.163635 
	C106.694397,143.848892 101.804626,144.331512 96.944870,145.025040 
	C94.175682,145.420227 92.689728,144.313721 91.866707,141.713333 
	C91.377739,140.168396 90.620659,138.634827 89.673309,137.320099 
	C82.056488,126.749672 91.088287,118.184875 101.628876,117.018951 
	C104.574432,116.693123 108.259102,118.220535 110.333199,116.363495 
	C112.715256,114.230698 110.150475,110.800400 109.943138,107.929512 
	C108.748253,91.384521 106.994286,74.893166 105.203941,58.400658 
	C104.600410,52.840889 102.986488,46.921040 106.792587,41.338902 
	C109.508614,37.355492 112.904533,34.305267 117.350945,34.379276 
	C121.471924,34.447872 122.618645,39.233521 123.587738,42.438335 
	C127.276596,54.637379 129.278030,67.224083 131.005264,79.843109 
	C132.291733,89.242012 134.026917,98.604149 134.748871,108.044868 
	C135.091019,112.518814 137.350662,112.372559 140.157394,111.942062 
	C148.559082,110.653450 156.711624,108.392006 164.570648,105.113190 
	C166.074936,104.485588 167.600677,103.885956 169.160217,103.419548 
	C171.779373,102.636246 172.356049,100.747398 171.957108,98.390869 
	C168.705841,79.185699 166.302155,59.865635 163.903290,40.541016 
	C163.319733,35.839893 162.206253,31.207108 161.967056,26.440359 
	C161.836792,23.844439 162.357224,21.533854 163.988495,19.053190 
z"/>
<path fill="#2F2F41" opacity="1.000000" stroke="none" 
	d="
M27.617855,35.766823 
	C34.411549,29.333162 42.179775,26.469553 51.137577,25.915417 
	C59.798546,25.379644 68.053612,27.158379 76.334030,29.096750 
	C78.852425,29.686283 80.373093,30.875608 80.104370,34.080441 
	C79.702423,38.874035 79.821243,43.735344 80.065918,48.550201 
	C80.215683,51.497234 79.142189,52.181458 76.401314,52.080402 
	C74.042084,51.993420 72.823692,51.732307 72.910423,48.864437 
	C73.018089,45.304203 73.496536,41.211243 70.197983,38.746880 
	C65.264465,35.061020 59.394623,34.323185 53.464546,35.282799 
	C44.407173,36.748478 39.584614,42.269890 37.835976,51.328636 
	C35.352142,64.196014 34.734196,76.761002 38.767326,89.526199 
	C43.253338,103.724800 53.877853,104.498650 63.947842,102.367508 
	C72.917000,100.469345 73.760880,98.466225 73.993484,88.051018 
	C74.039986,85.968994 73.363190,83.889450 76.985466,83.867401 
	C80.628281,83.845245 79.989380,85.958817 79.995049,88.025894 
	C80.009651,93.352516 79.963913,98.679573 80.017090,104.005707 
	C80.039024,106.201721 79.520668,107.265457 77.023148,108.168297 
	C64.672119,112.633171 51.974586,112.187935 39.659145,109.684258 
	C30.999025,107.923683 24.856056,100.997688 21.087389,92.901924 
	C13.261078,76.089607 14.064896,59.267090 22.068926,42.699341 
	C23.314737,40.120609 25.006918,37.777744 27.617855,35.766823 
z"/>
<path fill="#2F2F41" opacity="1.000000" stroke="none" 
	d="
M55.243721,126.000153 
	C43.744286,126.764839 38.792770,134.189545 37.276615,143.752792 
	C35.302284,156.206039 34.863640,168.641785 38.789040,181.189224 
	C43.717049,196.941483 62.412537,196.461105 71.113235,190.202957 
	C74.634178,187.670441 73.104553,182.932693 73.908554,179.224915 
	C74.381706,177.042877 73.401672,174.719040 77.303581,174.871277 
	C81.215080,175.023911 79.908386,177.532288 79.955299,179.345200 
	C80.084557,184.340195 79.744667,189.358139 80.084137,194.333313 
	C80.336494,198.031769 78.394241,199.077911 75.442116,200.046310 
	C68.564392,202.302521 61.513622,202.020538 54.454235,202.009583 
	C47.446583,201.998718 40.647648,202.188431 34.147499,198.164215 
	C24.615414,192.262909 19.655117,183.508667 17.112106,173.253769 
	C14.497612,162.710602 15.248879,151.838638 18.384693,141.634247 
	C21.725983,130.761246 28.948147,122.650543 40.343681,118.985611 
	C53.272587,114.827538 65.769478,117.169449 78.294136,120.890556 
	C80.284576,121.481918 79.977455,122.534409 79.984818,123.752594 
	C80.018066,129.250565 79.972145,134.749054 80.015938,140.246872 
	C80.029037,141.891342 79.984184,143.240112 77.722244,143.021164 
	C75.955307,142.850128 73.932243,143.471466 73.068428,141.151459 
	C72.957611,140.853851 73.051491,140.486481 73.000282,140.159286 
	C70.991501,127.323769 69.372124,126.000130 55.243721,126.000153 
z"/>
</svg>