<svg version="1.1" id="Layer_1" xmlns="http://www.w3.org/2000/svg" xmlns:xlink="http://www.w3.org/1999/xlink" x="0px" y="0px"
	 width="100%" viewBox="0 0 1000 267" enable-background="new 0 0 1000 267" xml:space="preserve">
<path fill="#FFFFFF" opacity="1.000000" stroke="none" 
	d="
M665.000000,268.000000 
	C443.333344,268.000000 222.166672,268.000000 1.000000,268.000000 
	C1.000000,179.000000 1.000000,90.000000 1.000000,1.000000 
	C334.333344,1.000000 667.666687,1.000000 1001.000000,1.000000 
	C1001.000000,90.000000 1001.000000,179.000000 1001.000000,268.000000 
	C889.166687,268.000000 777.333313,268.000000 665.000000,268.000000 
M337.638611,133.164749 
	C337.638611,133.164749 337.616455,133.255737 337.624176,134.016113 
	C336.193024,136.735168 335.178528,139.800415 333.257507,142.112473 
	C325.561462,151.375168 326.363770,155.389755 331.817688,161.829315 
	C335.766144,166.491379 334.720734,168.592590 330.946564,171.560089 
	C319.788391,180.333466 325.711884,194.218506 337.523071,197.946182 
	C345.781616,200.552612 354.213715,201.092422 362.940826,200.102921 
	C386.597473,197.420670 394.606140,184.221558 391.725433,163.789551 
	C390.958557,158.350281 388.041626,153.268158 381.969421,151.502106 
	C378.434265,150.473938 374.826080,149.399429 371.187134,149.087433 
	C363.493317,148.427704 355.757782,148.254654 347.860931,147.342834 
	C347.279999,146.882156 346.699066,146.421463 345.776398,145.243225 
	C345.776398,142.516098 345.776398,139.788971 345.776398,137.998886 
	C351.960968,137.998886 357.238586,138.414001 362.427002,137.910370 
	C372.470734,136.935440 381.568115,132.491638 384.270752,122.668427 
	C386.384308,114.986267 385.328735,106.091942 384.092010,97.978485 
	C383.513885,94.185867 383.370056,91.359169 385.296417,88.263222 
	C386.996246,85.531242 388.606750,82.743706 390.123108,80.204422 
	C388.435303,76.765419 386.239380,76.453125 383.516205,78.141068 
	C381.587982,79.336266 379.727722,80.678223 377.693695,81.656410 
	C375.104767,82.901474 372.392334,84.687096 369.695496,84.755486 
	C362.634949,84.934540 355.484894,83.567101 348.501465,84.218979 
	C342.126984,84.814011 335.854950,87.045631 331.969482,93.098480 
	C325.341339,103.423851 325.307037,114.317116 329.909515,125.153992 
	C331.258026,128.329147 334.935486,130.515182 337.638611,133.164749 
M965.811768,77.993164 
	C972.207642,76.606567 978.603516,75.219971 985.861572,73.969955 
	C986.890503,73.499779 988.839905,72.944794 988.805603,72.572578 
	C988.471863,68.951820 989.091370,63.818233 986.984497,62.064079 
	C981.561646,57.549171 974.893677,55.661797 967.328186,57.778454 
	C954.681946,61.316574 946.620178,70.350693 939.052551,80.065376 
	C936.418579,83.446625 934.442871,87.340675 932.029419,91.904030 
	C932.635559,96.757828 932.672668,101.768684 933.960327,106.434372 
	C937.128479,117.913429 945.620850,125.512810 954.127502,133.182983 
	C957.308411,136.051117 962.943054,137.090942 962.288696,143.286041 
	C958.912781,149.905792 954.641052,154.758743 946.096680,154.128647 
	C940.176697,153.692093 935.927856,157.049911 934.240234,162.679810 
	C939.049377,171.726959 946.285095,172.551224 959.729431,169.952484 
	C962.384277,168.444565 965.039124,166.936646 968.296753,165.732376 
	C969.211975,164.859650 970.127197,163.986923 971.663452,162.821533 
	C974.515381,158.664734 977.900391,154.770905 980.107544,150.296066 
	C984.612488,141.162552 981.207642,128.339844 973.595093,123.225677 
	C968.323120,119.683907 962.607117,116.572479 958.047913,112.256386 
	C951.826599,106.366714 947.790527,101.942261 953.446411,92.062988 
	C954.983337,89.378555 956.557373,86.715363 958.642273,83.840919 
	C959.108948,83.265366 959.575623,82.689812 960.636536,81.843414 
	C961.329102,81.041954 962.021667,80.240486 962.944946,79.745430 
	C962.944946,79.745430 963.320862,79.669640 963.902710,79.504715 
	C964.284546,79.039078 964.666443,78.573433 965.811768,77.993164 
M844.028870,124.923691 
	C844.355469,130.981049 844.088196,137.141464 845.118225,143.076736 
	C848.419861,162.100723 858.702454,166.802277 876.711365,160.953598 
	C878.039429,160.115143 879.367493,159.276688 880.927917,158.710037 
	C880.927917,158.710037 881.276306,158.629837 881.929016,158.438110 
	C882.520325,157.761292 883.111572,157.084488 884.265015,156.722885 
	C884.857483,156.186661 885.449951,155.650436 886.661072,154.822632 
	C888.478821,152.895905 890.296509,150.969177 892.726624,148.764389 
	C893.974121,147.626587 895.221558,146.488800 896.469055,145.350998 
	C896.942688,145.492020 897.416321,145.633026 897.889954,145.774048 
	C897.889954,156.500610 897.889954,167.227188 897.336304,178.225113 
	C897.279724,178.816177 897.223145,179.407257 897.029358,180.729187 
	C896.982910,181.470718 896.936401,182.212234 896.336365,183.225113 
	C896.279785,183.816193 896.223145,184.407257 896.026733,185.642899 
	C895.981140,186.079849 895.935547,186.516815 895.336304,187.225113 
	C895.279724,187.816177 895.223145,188.407257 895.026733,189.643036 
	C894.981018,190.080063 894.935303,190.517075 894.255615,191.345673 
	C891.732605,197.130600 889.557556,203.103012 886.574036,208.639740 
	C884.285522,212.886688 877.761169,215.026077 875.458679,212.854416 
	C872.463074,210.029099 869.656372,206.975418 867.007019,203.819672 
	C864.878052,201.283768 863.104065,198.449860 860.602295,194.950439 
	C858.485718,198.863724 856.826111,201.932098 855.030151,205.817810 
	C855.362671,207.741486 855.463074,209.741241 856.064819,211.576675 
	C860.510071,225.136108 866.979919,234.706573 881.678345,232.953354 
	C882.352112,232.451752 883.025940,231.950150 883.934021,231.710968 
	C883.934021,231.710968 884.276306,231.629837 884.929016,231.438110 
	C885.520325,230.761292 886.111572,230.084488 886.919006,229.701050 
	C886.919006,229.701050 887.276306,229.629837 887.929016,229.438126 
	C888.520325,228.761307 889.111633,228.084503 890.342712,227.722641 
	C892.242615,225.853165 894.142517,223.983688 896.663452,221.821564 
	C899.422302,217.977753 902.616211,214.370789 904.861206,210.247238 
	C912.661987,195.919418 914.743286,180.000000 914.743225,164.195114 
	C914.743225,141.257935 913.255859,118.304550 911.824158,95.394241 
	C911.435425,89.173706 909.262695,82.987907 907.330627,76.971855 
	C906.312195,73.800766 904.166870,69.935112 900.057373,71.162170 
	C893.088196,73.243088 885.727295,75.258980 879.777100,79.188866 
	C872.429016,84.041969 865.991455,90.472534 859.822510,96.860794 
	C852.427429,104.518730 846.184143,113.110283 844.028870,124.923691 
M678.488098,107.994331 
	C677.658081,107.285767 676.230591,106.677574 676.092041,105.852852 
	C674.927979,98.923943 674.216064,91.915733 672.948975,85.008286 
	C671.188416,75.410782 669.388672,65.797455 666.984009,56.349152 
	C665.346924,49.917019 660.631836,48.921143 656.628662,54.146248 
	C654.611755,56.778801 653.062866,60.722862 653.277527,63.942108 
	C654.073242,75.869209 655.717590,87.738640 656.984070,99.636024 
	C657.375244,103.311714 657.578247,107.007431 657.866089,110.676392 
	C639.831482,112.383842 636.544922,117.750305 645.567444,132.649246 
	C650.567200,132.088577 655.526123,131.532486 660.684082,130.954071 
	C661.142090,137.959625 661.282166,144.556641 662.072754,151.074768 
	C663.072937,159.321152 664.556213,167.511063 665.923462,175.709930 
	C666.584839,179.675873 668.299866,182.253677 673.094421,182.105423 
	C677.828369,181.959061 678.140076,178.505280 678.934143,175.464706 
	C682.031616,163.603775 679.657043,151.707169 678.263489,139.968369 
	C677.237366,131.324112 677.792786,125.777229 683.500244,124.414742 
	C690.703247,122.695236 698.205200,122.227829 705.758423,121.195656 
	C706.248901,127.394249 706.354431,132.187469 707.063232,136.889771 
	C708.179871,144.297745 709.381836,151.723007 711.160828,158.990829 
	C712.432983,164.188095 718.592346,166.103531 721.883911,162.364868 
	C725.351929,158.425888 727.865479,153.573181 726.866699,147.997559 
	C725.922058,142.724106 723.710999,137.594421 723.373230,132.317230 
	C722.986450,126.275452 720.238708,119.129349 727.945862,114.954041 
	C729.019592,114.372375 729.726196,113.032524 730.482666,111.959038 
	C734.411621,106.383965 731.918518,99.542961 725.436157,98.015579 
	C723.281006,97.507782 721.131470,96.976410 719.673401,96.623703 
	C717.881531,85.309517 716.627197,74.555389 714.366699,64.017105 
	C712.570190,55.641907 709.812195,47.435307 706.944580,39.343994 
	C705.592102,35.527821 700.694824,34.330147 698.667480,37.143654 
	C696.792908,39.745121 695.254089,43.353134 695.362183,46.455338 
	C695.570618,52.438976 697.148376,58.364235 697.972351,64.339340 
	C699.622437,76.304420 701.147217,88.286774 702.862854,101.318054 
	C695.204834,103.489853 687.280518,105.737190 678.488098,107.994331 
M776.985779,138.528076 
	C775.639954,140.107620 774.294128,141.687149 772.948303,143.266678 
	C771.937073,139.786804 772.216431,136.897247 771.881531,134.080750 
	C771.072754,127.279022 769.418213,120.535538 769.124207,113.724571 
	C768.650574,102.750832 769.077576,91.740822 768.961243,80.747864 
	C768.911011,75.998367 763.606873,71.061607 759.295898,71.387733 
	C754.269348,71.767998 747.498718,81.284691 747.978210,86.610741 
	C749.143372,99.551758 750.148193,112.510986 750.958130,125.479080 
	C751.644714,136.471802 752.923584,147.401031 757.376160,157.501816 
	C760.815979,165.305359 767.780029,170.695374 777.813904,163.559799 
	C780.463257,161.675705 782.678955,158.918381 784.483887,156.162552 
	C788.918640,149.391571 793.094055,142.444031 797.180054,135.454208 
	C799.187317,132.020340 800.764099,128.334824 802.535767,124.763199 
	C804.156494,130.406219 804.400757,135.488953 805.039734,140.521576 
	C806.150085,149.266190 807.337341,158.020676 811.958740,165.826767 
	C814.274658,169.738647 818.452209,171.210434 821.384155,169.073212 
	C825.557251,166.031281 827.402161,158.047623 825.896545,152.862305 
	C824.210205,147.054428 822.556641,141.080261 822.139282,135.091293 
	C821.059204,119.593040 821.076843,104.013268 819.808716,88.535484 
	C819.260803,81.848190 817.163513,75.126938 814.759399,68.805489 
	C812.961304,64.077461 805.854980,63.438400 803.400269,67.421951 
	C801.736206,70.122360 800.663208,73.375832 800.086975,76.521393 
	C798.500000,85.184105 798.033508,94.109894 795.801514,102.583267 
	C792.363403,115.634804 786.085693,127.488503 776.985779,138.528076 
M421.449005,148.964874 
	C429.399628,158.782928 440.014618,163.902924 452.290375,164.867996 
	C466.890503,166.015793 481.216034,163.977539 494.827667,158.429321 
	C495.292542,148.567307 495.748383,138.896790 496.199921,129.317963 
	C492.973328,129.317963 490.559662,129.317963 488.115387,129.317963 
	C487.723297,134.210327 487.807068,138.891510 486.813385,143.331558 
	C486.252686,145.836960 484.423645,148.950012 482.280121,150.028290 
	C477.483490,152.441208 472.168213,153.866379 466.998322,155.483292 
	C460.067291,157.651001 448.513824,152.636444 444.399963,147.756989 
	C437.803009,139.932312 434.692444,130.391968 434.190582,120.485977 
	C433.534973,107.544228 432.863403,94.402016 437.038635,81.770302 
	C439.693695,73.737732 443.657776,66.344742 452.043152,63.115307 
	C462.352051,59.145077 472.508026,60.279678 481.955383,66.079414 
	C483.290436,66.899010 484.549652,68.607803 484.899292,70.123024 
	C485.942169,74.642189 486.514893,79.269836 487.239044,83.659538 
	C489.708130,83.659538 491.768311,83.659538 494.000000,83.659538 
	C494.000000,76.168678 493.615082,68.988739 494.137665,61.875454 
	C494.476257,57.266792 492.413391,55.715214 488.587585,55.014160 
	C475.930023,52.694744 463.468903,50.185352 450.278534,51.769909 
	C433.826599,53.746284 419.374634,64.276123 413.912537,79.860756 
	C409.155212,93.434433 408.671906,107.388893 410.194214,121.339386 
	C411.262482,131.128967 414.273590,140.636597 421.449005,148.964874 
M13.992345,86.547005 
	C13.669652,87.460091 13.176795,88.350220 13.050018,89.289742 
	C11.385745,101.623398 10.551087,113.988853 13.031878,126.300026 
	C17.381779,147.886826 31.823683,162.740219 54.252281,164.852615 
	C68.825302,166.225159 83.175972,163.955048 96.826202,158.451752 
	C97.292992,148.614777 97.751961,138.942596 98.209648,129.297440 
	C95.008110,129.297440 92.598877,129.297440 90.122887,129.297440 
	C89.730064,134.158997 89.805290,138.831650 88.817810,143.267776 
	C88.259262,145.777039 86.466232,148.911285 84.333000,149.987381 
	C79.541222,152.404602 74.221802,153.812897 69.059242,155.449081 
	C62.014500,157.681793 50.556854,152.641663 46.451183,147.813828 
	C39.823460,140.020340 36.680969,130.480042 36.192524,120.570518 
	C35.554832,107.633171 34.785706,94.473984 39.048622,81.868217 
	C42.325241,72.179008 47.306171,64.249847 58.590691,61.845581 
	C67.430763,59.962120 75.424240,61.203571 82.973511,65.636253 
	C84.760284,66.685387 86.328026,68.988983 86.908783,71.025688 
	C88.088715,75.163612 88.526283,79.513206 89.257362,83.704231 
	C91.620178,83.704231 93.686012,83.704231 96.000000,83.704231 
	C96.000000,76.269341 95.667542,69.105759 96.122032,61.992458 
	C96.404259,57.575207 94.719170,55.763065 90.713943,54.996647 
	C77.397682,52.448498 64.145233,49.444534 50.434288,51.980724 
	C40.458954,53.825912 30.870317,57.136345 24.638367,65.265747 
	C20.038387,71.266296 17.474356,78.827591 13.992345,86.547005 
M558.445007,83.999222 
	C554.276978,83.998268 550.093140,83.762718 545.943848,84.041344 
	C534.534973,84.807442 527.592407,91.426628 524.025696,101.806419 
	C519.703308,114.385513 519.990723,127.398262 522.281738,140.195770 
	C523.660278,147.896149 526.535217,155.306122 533.656006,160.307480 
	C540.159058,164.874924 547.314880,165.328003 554.676636,164.950989 
	C567.130127,164.313248 574.985474,158.673080 578.975647,147.450851 
	C583.744263,134.039490 583.068298,120.180305 580.619629,106.610596 
	C578.525635,95.006393 572.170288,86.106796 558.445007,83.999222 
M231.108276,96.653717 
	C231.738724,102.120598 232.370865,107.587273 232.998932,113.054428 
	C233.357803,116.178207 231.798584,117.007057 228.875763,117.064682 
	C223.294128,117.174736 217.658722,117.264862 212.158127,118.102196 
	C205.081512,119.179436 198.063629,122.725365 196.065231,133.232727 
	C195.306168,137.223816 194.667816,141.440964 195.126862,145.422211 
	C196.456421,156.953720 200.422699,165.219345 216.049835,165.112595 
	C222.616364,165.067734 227.882233,162.305359 233.271347,159.337173 
	C233.656311,159.125137 234.203735,159.208099 234.674515,159.154022 
	C234.936325,160.470551 235.178223,161.686951 235.369385,162.648193 
	C244.112701,162.648193 252.509262,162.648193 262.723755,162.648193 
	C260.670685,159.716843 259.478149,156.406311 258.081238,156.317703 
	C253.693146,156.039429 253.972107,153.517929 253.980133,150.558578 
	C254.022476,134.903030 254.054459,119.247040 253.983093,103.591690 
	C253.924103,90.651031 246.060562,84.707222 234.956894,84.210770 
	C224.403946,83.738953 213.772934,85.013123 203.302063,85.513565 
	C203.302063,93.054733 203.302063,99.472977 203.302063,105.858948 
	C205.250992,105.858948 206.894287,105.858948 208.906387,105.858948 
	C209.117935,97.605179 213.484406,93.769600 221.551071,92.536858 
	C225.839203,91.881554 228.242844,93.125496 231.108276,96.653717 
M138.483475,85.000000 
	C132.706772,85.000000 126.930061,85.000000 121.132278,85.000000 
	C121.132278,87.552986 121.132278,89.521034 121.132278,91.481934 
	C122.280403,91.918625 123.341415,92.711342 124.338486,92.637741 
	C130.443115,92.187119 130.097824,96.075012 130.057327,100.328262 
	C129.911453,115.650513 130.000000,130.974991 130.000000,146.298630 
	C130.000000,154.733139 129.998993,154.729675 121.761215,157.106827 
	C121.496048,157.183350 121.297447,157.490540 121.184799,157.588486 
	C121.184799,159.366272 121.184799,160.980545 121.184799,162.794052 
	C134.786697,162.794052 148.204605,162.794052 161.796783,162.794052 
	C161.796783,160.837036 161.796783,159.086502 161.796783,157.340454 
	C159.559570,156.866516 157.525864,156.152084 155.464813,156.061722 
	C151.856033,155.903549 150.880157,154.214661 150.929153,150.752182 
	C151.108261,138.096054 150.971069,125.435715 151.041214,112.777443 
	C151.048904,111.389397 151.156204,109.318108 152.015411,108.730278 
	C157.344818,105.084190 162.999817,102.050545 169.619400,102.012390 
	C174.392822,112.120537 174.392822,112.120537 178.717773,111.481155 
	C178.717773,102.058929 178.717773,92.641739 178.717773,83.307663 
	C172.547058,82.014542 167.402817,83.776901 162.995712,87.548714 
	C158.757339,91.176132 154.796356,95.127678 149.978333,99.622665 
	C149.978333,94.264595 149.978333,89.739731 149.978333,85.000000 
	C146.094284,85.000000 142.785370,85.000000 138.483475,85.000000 
M303.000000,91.578949 
	C303.000000,89.476273 303.000000,87.373589 303.000000,85.279449 
	C293.346649,85.279449 284.263519,85.279449 275.237152,85.279449 
	C274.587433,89.587234 274.354126,93.247757 280.219604,93.250572 
	C280.813660,93.250854 281.913971,95.863228 281.922943,97.268883 
	C282.039124,115.430496 282.065338,133.593796 281.872070,151.754089 
	C281.857056,153.165619 280.186737,155.597916 279.015656,155.775620 
	C274.406433,156.474991 274.648285,159.281586 275.245819,162.647919 
	C286.828918,162.647919 298.362579,162.647919 311.727356,162.647919 
	C309.669830,159.715210 308.475616,156.406082 307.076996,156.317307 
	C302.680969,156.038284 302.975220,153.505310 302.980865,150.550415 
	C303.018005,131.221741 303.000000,111.892967 303.000000,91.578949 
M302.998535,62.945885 
	C302.998718,60.455822 303.120209,57.958687 302.975433,55.477081 
	C302.602814,49.090488 294.207672,43.782978 288.403656,46.191338 
	C283.450317,48.246716 280.391907,54.304081 281.002075,60.850788 
	C281.524445,66.455360 285.292511,71.336960 289.600586,71.990311 
	C295.775757,72.926834 299.719543,70.512909 302.998535,62.945885 
z"/>
<path fill="#BF15E4" opacity="1.000000" stroke="none" 
	d="
M678.922119,107.989426 
	C687.280518,105.737190 695.204834,103.489853 702.862854,101.318054 
	C701.147217,88.286774 699.622437,76.304420 697.972351,64.339340 
	C697.148376,58.364235 695.570618,52.438976 695.362183,46.455338 
	C695.254089,43.353134 696.792908,39.745121 698.667480,37.143654 
	C700.694824,34.330147 705.592102,35.527821 706.944580,39.343994 
	C709.812195,47.435307 712.570190,55.641907 714.366699,64.017105 
	C716.627197,74.555389 717.881531,85.309517 719.673401,96.623703 
	C721.131470,96.976410 723.281006,97.507782 725.436157,98.015579 
	C731.918518,99.542961 734.411621,106.383965 730.482666,111.959038 
	C729.726196,113.032524 729.019592,114.372375 727.945862,114.954041 
	C720.238708,119.129349 722.986450,126.275452 723.373230,132.317230 
	C723.710999,137.594421 725.922058,142.724106 726.866699,147.997559 
	C727.865479,153.573181 725.351929,158.425888 721.883911,162.364868 
	C718.592346,166.103531 712.432983,164.188095 711.160828,158.990829 
	C709.381836,151.723007 708.179871,144.297745 707.063232,136.889771 
	C706.354431,132.187469 706.248901,127.394249 705.758423,121.195656 
	C698.205200,122.227829 690.703247,122.695236 683.500244,124.414742 
	C677.792786,125.777229 677.237366,131.324112 678.263489,139.968369 
	C679.657043,151.707169 682.031616,163.603775 678.934143,175.464706 
	C678.140076,178.505280 677.828369,181.959061 673.094421,182.105423 
	C668.299866,182.253677 666.584839,179.675873 665.923462,175.709930 
	C664.556213,167.511063 663.072937,159.321152 662.072754,151.074768 
	C661.282166,144.556641 661.142090,137.959625 660.684082,130.954071 
	C655.526123,131.532486 650.567200,132.088577 645.567444,132.649246 
	C636.544922,117.750305 639.831482,112.383842 657.866089,110.676392 
	C657.578247,107.007431 657.375244,103.311714 656.984070,99.636024 
	C655.717590,87.738640 654.073242,75.869209 653.277527,63.942108 
	C653.062866,60.722862 654.611755,56.778801 656.628662,54.146248 
	C660.631836,48.921143 665.346924,49.917019 666.984009,56.349152 
	C669.388672,65.797455 671.188416,75.410782 672.948975,85.008286 
	C674.216064,91.915733 674.927979,98.923943 676.092041,105.852852 
	C676.230591,106.677574 677.658081,107.285767 678.922119,107.989426 
z"/>
<path fill="#BF15E4" opacity="1.000000" stroke="none" 
	d="
M886.042419,155.114197 
	C885.449951,155.650436 884.857483,156.186661 883.559692,156.466858 
	C882.328308,157.017151 881.802307,157.823502 881.276306,158.629837 
	C881.276306,158.629837 880.927917,158.710037 880.418213,158.438080 
	C878.605896,159.055222 877.303223,159.944305 876.000549,160.833374 
	C858.702454,166.802277 848.419861,162.100723 845.118225,143.076736 
	C844.088196,137.141464 844.355469,130.981049 844.439575,124.388214 
	C849.577209,112.057816 857.417114,102.557632 866.532776,93.902313 
	C874.939270,85.920372 884.261230,79.595909 895.484863,76.334122 
	C899.520569,75.161293 902.346619,76.869339 903.841248,80.472801 
	C904.907166,83.042648 905.365112,85.874992 905.998047,88.612465 
	C910.432312,107.790474 909.912231,127.409103 910.859314,146.870911 
	C911.333191,156.607437 910.579163,166.431778 909.941833,176.187729 
	C909.005249,190.525391 906.444702,204.450592 897.986206,216.635651 
	C896.920105,218.171570 896.670410,220.274185 896.042419,222.114227 
	C894.142517,223.983688 892.242615,225.853165 889.598511,227.466721 
	C888.328247,228.017136 887.802246,228.823471 887.276245,229.629822 
	C887.276306,229.629837 886.919006,229.701050 886.386658,229.455933 
	C885.328308,230.017136 884.802307,230.823486 884.276306,231.629822 
	C884.276306,231.629837 883.934021,231.710968 883.459351,231.453217 
	C882.323669,231.741440 881.662720,232.287415 881.001709,232.833374 
	C866.979919,234.706573 860.510071,225.136108 856.064819,211.576675 
	C855.463074,209.741241 855.362671,207.741486 855.440186,205.400879 
	C858.747803,202.824432 860.743164,204.498474 862.556641,206.628143 
	C864.888245,209.366318 867.209595,212.117569 869.422974,214.950958 
	C872.079285,218.351395 875.350952,218.402893 879.214111,217.463074 
	C885.887390,215.839645 888.699890,210.644333 890.856018,205.086166 
	C892.620239,200.538300 893.575562,195.676620 894.889526,190.954071 
	C894.935303,190.517075 894.981018,190.080063 895.382874,189.278824 
	C895.789307,188.261002 895.839661,187.607376 895.889954,186.953766 
	C895.935547,186.516815 895.981140,186.079849 896.382874,185.278748 
	C896.789368,184.261002 896.839661,183.607376 896.889954,182.953766 
	C896.936401,182.212234 896.982910,181.470718 897.384155,180.321899 
	C897.789307,179.261002 897.839661,178.607376 897.889954,177.953766 
	C897.889954,167.227188 897.889954,156.500610 897.889954,145.774048 
	C897.416321,145.633026 896.942688,145.492020 896.469055,145.350998 
	C895.221558,146.488800 893.974121,147.626587 892.040894,148.894867 
	C887.869873,149.559128 886.014893,151.515381 886.042419,155.114197 
M872.461060,113.030350 
	C868.195496,117.745163 864.770508,122.945274 864.089172,129.427261 
	C863.743286,132.717010 862.778015,136.713440 864.166748,139.258774 
	C867.412476,145.207428 871.823425,145.376282 876.976196,140.479599 
	C884.685974,133.153046 888.375916,123.496201 891.991150,113.808662 
	C893.942932,108.578621 892.905518,103.915512 889.262207,98.293037 
	C883.673096,103.179100 878.325623,107.853859 872.461060,113.030350 
z"/>
<path fill="#BF15E4" opacity="1.000000" stroke="none" 
	d="
M777.236816,138.268723 
	C786.085693,127.488503 792.363403,115.634804 795.801514,102.583267 
	C798.033508,94.109894 798.500000,85.184105 800.086975,76.521393 
	C800.663208,73.375832 801.736206,70.122360 803.400269,67.421951 
	C805.854980,63.438400 812.961304,64.077461 814.759399,68.805489 
	C817.163513,75.126938 819.260803,81.848190 819.808716,88.535484 
	C821.076843,104.013268 821.059204,119.593040 822.139282,135.091293 
	C822.556641,141.080261 824.210205,147.054428 825.896545,152.862305 
	C827.402161,158.047623 825.557251,166.031281 821.384155,169.073212 
	C818.452209,171.210434 814.274658,169.738647 811.958740,165.826767 
	C807.337341,158.020676 806.150085,149.266190 805.039734,140.521576 
	C804.400757,135.488953 804.156494,130.406219 802.535767,124.763199 
	C800.764099,128.334824 799.187317,132.020340 797.180054,135.454208 
	C793.094055,142.444031 788.918640,149.391571 784.483887,156.162552 
	C782.678955,158.918381 780.463257,161.675705 777.813904,163.559799 
	C767.780029,170.695374 760.815979,165.305359 757.376160,157.501816 
	C752.923584,147.401031 751.644714,136.471802 750.958130,125.479080 
	C750.148193,112.510986 749.143372,99.551758 747.978210,86.610741 
	C747.498718,81.284691 754.269348,71.767998 759.295898,71.387733 
	C763.606873,71.061607 768.911011,75.998367 768.961243,80.747864 
	C769.077576,91.740822 768.650574,102.750832 769.124207,113.724571 
	C769.418213,120.535538 771.072754,127.279022 771.881531,134.080750 
	C772.216431,136.897247 771.937073,139.786804 772.948303,143.266678 
	C774.294128,141.687149 775.639954,140.107620 777.236816,138.268723 
z"/>
<path fill="#2F2F41" opacity="1.000000" stroke="none" 
	d="
M421.202393,148.700256 
	C414.273590,140.636597 411.262482,131.128967 410.194214,121.339386 
	C408.671906,107.388893 409.155212,93.434433 413.912537,79.860756 
	C419.374634,64.276123 433.826599,53.746284 450.278534,51.769909 
	C463.468903,50.185352 475.930023,52.694744 488.587585,55.014160 
	C492.413391,55.715214 494.476257,57.266792 494.137665,61.875454 
	C493.615082,68.988739 494.000000,76.168678 494.000000,83.659538 
	C491.768311,83.659538 489.708130,83.659538 487.239044,83.659538 
	C486.514893,79.269836 485.942169,74.642189 484.899292,70.123024 
	C484.549652,68.607803 483.290436,66.899010 481.955383,66.079414 
	C472.508026,60.279678 462.352051,59.145077 452.043152,63.115307 
	C443.657776,66.344742 439.693695,73.737732 437.038635,81.770302 
	C432.863403,94.402016 433.534973,107.544228 434.190582,120.485977 
	C434.692444,130.391968 437.803009,139.932312 444.399963,147.756989 
	C448.513824,152.636444 460.067291,157.651001 466.998322,155.483292 
	C472.168213,153.866379 477.483490,152.441208 482.280121,150.028290 
	C484.423645,148.950012 486.252686,145.836960 486.813385,143.331558 
	C487.807068,138.891510 487.723297,134.210327 488.115387,129.317963 
	C490.559662,129.317963 492.973328,129.317963 496.199921,129.317963 
	C495.748383,138.896790 495.292542,148.567307 494.827667,158.429321 
	C481.216034,163.977539 466.890503,166.015793 452.290375,164.867996 
	C440.014618,163.902924 429.399628,158.782928 421.202393,148.700256 
z"/>
<path fill="#2F2F41" opacity="1.000000" stroke="none" 
	d="
M13.997777,86.120255 
	C17.474356,78.827591 20.038387,71.266296 24.638367,65.265747 
	C30.870317,57.136345 40.458954,53.825912 50.434288,51.980724 
	C64.145233,49.444534 77.397682,52.448498 90.713943,54.996647 
	C94.719170,55.763065 96.404259,57.575207 96.122032,61.992458 
	C95.667542,69.105759 96.000000,76.269341 96.000000,83.704231 
	C93.686012,83.704231 91.620178,83.704231 89.257362,83.704231 
	C88.526283,79.513206 88.088715,75.163612 86.908783,71.025688 
	C86.328026,68.988983 84.760284,66.685387 82.973511,65.636253 
	C75.424240,61.203571 67.430763,59.962120 58.590691,61.845581 
	C47.306171,64.249847 42.325241,72.179008 39.048622,81.868217 
	C34.785706,94.473984 35.554832,107.633171 36.192524,120.570518 
	C36.680969,130.480042 39.823460,140.020340 46.451183,147.813828 
	C50.556854,152.641663 62.014500,157.681793 69.059242,155.449081 
	C74.221802,153.812897 79.541222,152.404602 84.333000,149.987381 
	C86.466232,148.911285 88.259262,145.777039 88.817810,143.267776 
	C89.805290,138.831650 89.730064,134.158997 90.122887,129.297440 
	C92.598877,129.297440 95.008110,129.297440 98.209648,129.297440 
	C97.751961,138.942596 97.292992,148.614777 96.826202,158.451752 
	C83.175972,163.955048 68.825302,166.225159 54.252281,164.852615 
	C31.823683,162.740219 17.381779,147.886826 13.031878,126.300026 
	C10.551087,113.988853 11.385745,101.623398 13.050018,89.289742 
	C13.176795,88.350220 13.669652,87.460091 13.997777,86.120255 
z"/>
<path fill="#2F2F41" opacity="1.000000" stroke="none" 
	d="
M558.879761,83.999725 
	C572.170288,86.106796 578.525635,95.006393 580.619629,106.610596 
	C583.068298,120.180305 583.744263,134.039490 578.975647,147.450851 
	C574.985474,158.673080 567.130127,164.313248 554.676636,164.950989 
	C547.314880,165.328003 540.159058,164.874924 533.656006,160.307480 
	C526.535217,155.306122 523.660278,147.896149 522.281738,140.195770 
	C519.990723,127.398262 519.703308,114.385513 524.025696,101.806419 
	C527.592407,91.426628 534.534973,84.807442 545.943848,84.041344 
	C550.093140,83.762718 554.276978,83.998268 558.879761,83.999725 
M542.000000,119.703323 
	C542.983826,129.762146 543.632080,139.873856 545.202515,149.840271 
	C545.565979,152.146805 549.246094,155.731659 551.103088,155.557739 
	C553.566162,155.327057 556.933594,152.390778 557.786499,149.891586 
	C559.588806,144.610489 560.710327,138.875320 560.844421,133.295975 
	C561.074219,123.732643 560.590393,114.126167 559.855774,104.580154 
	C559.607361,101.351532 558.298584,97.772743 556.320129,95.264412 
	C555.051514,93.656013 550.855286,92.412399 549.422852,93.313240 
	C547.009644,94.830849 544.828186,97.977066 544.197205,100.805840 
	C542.891418,106.660027 542.668640,112.755753 542.000000,119.703323 
z"/>
<path fill="#2F2F41" opacity="1.000000" stroke="none" 
	d="
M230.841034,96.347656 
	C228.242844,93.125496 225.839203,91.881554 221.551071,92.536858 
	C213.484406,93.769600 209.117935,97.605179 208.906387,105.858948 
	C206.894287,105.858948 205.250992,105.858948 203.302063,105.858948 
	C203.302063,99.472977 203.302063,93.054733 203.302063,85.513565 
	C213.772934,85.013123 224.403946,83.738953 234.956894,84.210770 
	C246.060562,84.707222 253.924103,90.651031 253.983093,103.591690 
	C254.054459,119.247040 254.022476,134.903030 253.980133,150.558578 
	C253.972107,153.517929 253.693146,156.039429 258.081238,156.317703 
	C259.478149,156.406311 260.670685,159.716843 262.723755,162.648193 
	C252.509262,162.648193 244.112701,162.648193 235.369385,162.648193 
	C235.178223,161.686951 234.936325,160.470551 234.674515,159.154022 
	C234.203735,159.208099 233.656311,159.125137 233.271347,159.337173 
	C227.882233,162.305359 222.616364,165.067734 216.049835,165.112595 
	C200.422699,165.219345 196.456421,156.953720 195.126862,145.422211 
	C194.667816,141.440964 195.306168,137.223816 196.065231,133.232727 
	C198.063629,122.725365 205.081512,119.179436 212.158127,118.102196 
	C217.658722,117.264862 223.294128,117.174736 228.875763,117.064682 
	C231.798584,117.007057 233.357803,116.178207 232.998932,113.054428 
	C232.370865,107.587273 231.738724,102.120598 230.841034,96.347656 
M216.000244,143.193008 
	C217.295715,146.262161 217.794754,150.492096 220.107346,152.078796 
	C222.490402,153.713837 226.658249,153.039001 230.005768,152.806747 
	C231.068085,152.733047 232.832733,150.861649 232.865479,149.770554 
	C233.109116,141.654678 232.997696,133.528152 232.997696,125.459686 
	C223.472046,124.317322 218.633621,126.602486 217.089249,133.107010 
	C216.380585,136.091827 216.342285,139.235794 216.000244,143.193008 
z"/>
<path fill="#2F2F41" opacity="1.000000" stroke="none" 
	d="
M138.979950,85.000000 
	C142.785370,85.000000 146.094284,85.000000 149.978333,85.000000 
	C149.978333,89.739731 149.978333,94.264595 149.978333,99.622665 
	C154.796356,95.127678 158.757339,91.176132 162.995712,87.548714 
	C167.402817,83.776901 172.547058,82.014542 178.717773,83.307663 
	C178.717773,92.641739 178.717773,102.058929 178.717773,111.481155 
	C174.392822,112.120537 174.392822,112.120537 169.619400,102.012390 
	C162.999817,102.050545 157.344818,105.084190 152.015411,108.730278 
	C151.156204,109.318108 151.048904,111.389397 151.041214,112.777443 
	C150.971069,125.435715 151.108261,138.096054 150.929153,150.752182 
	C150.880157,154.214661 151.856033,155.903549 155.464813,156.061722 
	C157.525864,156.152084 159.559570,156.866516 161.796783,157.340454 
	C161.796783,159.086502 161.796783,160.837036 161.796783,162.794052 
	C148.204605,162.794052 134.786697,162.794052 121.184799,162.794052 
	C121.184799,160.980545 121.184799,159.366272 121.184799,157.588486 
	C121.297447,157.490540 121.496048,157.183350 121.761215,157.106827 
	C129.998993,154.729675 130.000000,154.733139 130.000000,146.298630 
	C130.000000,130.974991 129.911453,115.650513 130.057327,100.328262 
	C130.097824,96.075012 130.443115,92.187119 124.338486,92.637741 
	C123.341415,92.711342 122.280403,91.918625 121.132278,91.481934 
	C121.132278,89.521034 121.132278,87.552986 121.132278,85.000000 
	C126.930061,85.000000 132.706772,85.000000 138.979950,85.000000 
z"/>
<path fill="#BF15E4" opacity="1.000000" stroke="none" 
	d="
M971.042419,163.114197 
	C970.127197,163.986923 969.211975,164.859650 967.584106,165.447296 
	C964.247803,166.719254 961.624146,168.276306 959.000488,169.833374 
	C946.285095,172.551224 939.049377,171.726959 934.569702,162.333420 
	C939.069641,160.658066 943.257141,158.190155 947.406799,158.252213 
	C954.638367,158.360352 958.162720,153.819290 961.698730,149.100540 
	C962.824707,147.597900 962.532898,145.032837 962.889771,142.953903 
	C962.943054,137.090942 957.308411,136.051117 954.127502,133.182983 
	C945.620850,125.512810 937.128479,117.913429 933.960327,106.434372 
	C932.672668,101.768684 932.635559,96.757828 932.457764,91.441910 
	C936.780945,86.546715 940.898499,82.287422 944.521362,77.642258 
	C950.927002,69.429138 959.006958,63.758331 969.040283,61.225761 
	C976.590027,59.320087 984.996704,66.238792 984.999390,73.833374 
	C978.603516,75.219971 972.207642,76.606567 965.227966,77.791931 
	C964.203064,78.283676 963.761963,78.976654 963.320862,79.669640 
	C963.320862,79.669640 962.944946,79.745430 962.429688,79.476822 
	C961.290344,80.176895 960.666321,81.145584 960.042358,82.114265 
	C959.575623,82.689812 959.108948,83.265366 957.999634,83.933487 
	C950.470459,87.623619 948.854614,94.546967 947.139038,101.112442 
	C946.120911,105.008957 946.912964,109.116577 950.418213,112.030426 
	C956.111755,116.763489 961.585388,121.797142 967.549683,126.159927 
	C976.096436,132.411743 983.145142,144.023041 974.629395,155.132568 
	C972.902283,157.385727 972.211121,160.433014 971.042419,163.114197 
z"/>
<path fill="#2F2F41" opacity="1.000000" stroke="none" 
	d="
M348.039337,147.881989 
	C355.757782,148.254654 363.493317,148.427704 371.187134,149.087433 
	C374.826080,149.399429 378.434265,150.473938 381.969421,151.502106 
	C388.041626,153.268158 390.958557,158.350281 391.725433,163.789551 
	C394.606140,184.221558 386.597473,197.420670 362.940826,200.102921 
	C354.213715,201.092422 345.781616,200.552612 337.523071,197.946182 
	C325.711884,194.218506 319.788391,180.333466 330.946564,171.560089 
	C334.720734,168.592590 335.766144,166.491379 331.817688,161.829315 
	C326.363770,155.389755 325.561462,151.375168 333.257507,142.112473 
	C335.178528,139.800415 336.193024,136.735168 337.987000,133.604370 
	C339.340454,133.656540 340.334045,134.521988 341.321136,134.514648 
	C345.548462,134.483322 349.773895,134.194778 354.436829,134.000000 
	C357.915771,133.666672 360.957886,133.333328 364.367920,132.960541 
	C377.843781,128.451431 382.209198,122.725800 381.908661,109.145638 
	C381.763428,102.582291 380.776428,96.021942 379.819489,89.511856 
	C379.699066,88.692673 377.435730,87.667664 376.158783,87.658661 
	C374.130524,87.644363 372.066589,88.868622 370.071960,88.738312 
	C366.474762,88.503296 362.933136,87.414268 359.335999,87.181923 
	C357.935638,87.091461 356.447937,88.353844 354.571533,89.000000 
	C352.428711,89.000000 350.714355,89.000000 348.608612,89.006851 
	C338.873169,90.467949 333.441132,95.927979 331.996399,105.207397 
	C330.600616,114.172577 328.793121,123.279282 337.049072,130.390381 
	C337.599701,130.864639 337.397552,132.212845 337.545532,133.154556 
	C334.935486,130.515182 331.258026,128.329147 329.909515,125.153992 
	C325.307037,114.317116 325.341339,103.423851 331.969482,93.098480 
	C335.854950,87.045631 342.126984,84.814011 348.501465,84.218979 
	C355.484894,83.567101 362.634949,84.934540 369.695496,84.755486 
	C372.392334,84.687096 375.104767,82.901474 377.693695,81.656410 
	C379.727722,80.678223 381.587982,79.336266 383.516205,78.141068 
	C386.239380,76.453125 388.435303,76.765419 390.123108,80.204422 
	C388.606750,82.743706 386.996246,85.531242 385.296417,88.263222 
	C383.370056,91.359169 383.513885,94.185867 384.092010,97.978485 
	C385.328735,106.091942 386.384308,114.986267 384.270752,122.668427 
	C381.568115,132.491638 372.470734,136.935440 362.427002,137.910370 
	C357.238586,138.414001 351.960968,137.998886 345.776398,137.998886 
	C345.776398,139.788971 345.776398,142.516098 345.570190,145.606934 
	C343.192902,144.922073 340.300537,142.471680 339.010620,143.135437 
	C336.767670,144.289597 335.520020,147.370911 333.840485,149.633423 
	C333.543915,150.032959 332.875000,150.391373 332.888641,150.749313 
	C333.015686,154.082016 332.450623,157.757370 333.694458,160.639236 
	C334.859192,163.337677 337.974487,165.194199 340.196472,167.386780 
	C341.933014,166.642960 343.820801,165.191010 345.760559,165.117966 
	C353.082275,164.842148 360.425629,164.860153 367.751160,165.084915 
	C371.346436,165.195236 374.325012,166.606277 373.599487,170.945221 
	C365.291229,170.182617 357.350769,169.409500 349.391754,169.062088 
	C343.807373,168.818314 342.667664,173.465424 340.851929,177.482651 
	C338.967010,181.652954 340.573334,184.509094 343.496765,187.150284 
	C350.130096,193.143250 364.202576,191.219376 370.078705,187.286346 
	C376.071899,183.274963 377.453796,178.047684 375.267822,172.034943 
	C380.162933,174.465302 381.645081,180.032486 378.838257,184.620865 
	C377.449005,186.891876 375.730865,188.961700 374.161530,191.122559 
	C374.522491,191.492035 374.883453,191.861526 375.244446,192.231003 
	C377.829498,190.151337 380.601501,188.262802 382.962555,185.954056 
	C388.693909,180.349579 388.053467,173.022552 388.009918,165.881622 
	C387.958618,157.471039 386.316437,154.992828 378.014465,154.086807 
	C369.965973,153.208466 361.811432,153.230621 353.699158,153.041214 
	C350.126709,152.957809 347.874359,151.857574 348.039337,147.881989 
M329.736023,188.523956 
	C330.100555,189.243637 330.274902,190.239914 330.858398,190.641144 
	C338.528503,195.915268 347.339996,196.374680 356.218811,196.460602 
	C356.254608,196.460953 356.295837,195.899643 356.395691,195.127975 
	C343.427063,194.973801 338.032959,186.386246 335.224976,175.002350 
	C330.100616,178.219788 327.859528,182.160553 329.736023,188.523956 
M363.390289,195.202637 
	C363.785370,195.206833 364.180481,195.211029 364.575562,195.215210 
	C364.577057,195.051254 364.589539,194.744812 364.578491,194.743973 
	C364.185364,194.713654 363.790009,194.711945 363.390289,195.202637 
z"/>
<path fill="#2F2F41" opacity="1.000000" stroke="none" 
	d="
M303.000000,92.071587 
	C303.000000,111.892967 303.018005,131.221741 302.980865,150.550415 
	C302.975220,153.505310 302.680969,156.038284 307.076996,156.317307 
	C308.475616,156.406082 309.669830,159.715210 311.727356,162.647919 
	C298.362579,162.647919 286.828918,162.647919 275.245819,162.647919 
	C274.648285,159.281586 274.406433,156.474991 279.015656,155.775620 
	C280.186737,155.597916 281.857056,153.165619 281.872070,151.754089 
	C282.065338,133.593796 282.039124,115.430496 281.922943,97.268883 
	C281.913971,95.863228 280.813660,93.250854 280.219604,93.250572 
	C274.354126,93.247757 274.587433,89.587234 275.237152,85.279449 
	C284.263519,85.279449 293.346649,85.279449 303.000000,85.279449 
	C303.000000,87.373589 303.000000,89.476273 303.000000,92.071587 
z"/>
<path fill="#2F2F41" opacity="1.000000" stroke="none" 
	d="
M347.950134,147.612411 
	C347.874359,151.857574 350.126709,152.957809 353.699158,153.041214 
	C361.811432,153.230621 369.965973,153.208466 378.014465,154.086807 
	C386.316437,154.992828 387.958618,157.471039 388.009918,165.881622 
	C388.053467,173.022552 388.693909,180.349579 382.962555,185.954056 
	C380.601501,188.262802 377.829498,190.151337 375.244446,192.231003 
	C374.883453,191.861526 374.522491,191.492035 374.161530,191.122559 
	C375.730865,188.961700 377.449005,186.891876 378.838257,184.620865 
	C381.645081,180.032486 380.162933,174.465302 375.035889,171.974747 
	C374.120056,171.735016 373.966980,171.467392 373.959381,171.116547 
	C374.325012,166.606277 371.346436,165.195236 367.751160,165.084915 
	C360.425629,164.860153 353.082275,164.842148 345.760559,165.117966 
	C343.820801,165.191010 341.933014,166.642960 340.196472,167.386780 
	C337.974487,165.194199 334.859192,163.337677 333.694458,160.639236 
	C332.450623,157.757370 333.015686,154.082016 332.888641,150.749313 
	C332.875000,150.391373 333.543915,150.032959 333.840485,149.633423 
	C335.520020,147.370911 336.767670,144.289597 339.010620,143.135437 
	C340.300537,142.471680 343.192902,144.922073 345.741028,145.965698 
	C346.699066,146.421463 347.279999,146.882156 347.950134,147.612411 
z"/>
<path fill="#BF15E4" opacity="1.000000" stroke="none" 
	d="
M896.352905,221.967896 
	C896.670410,220.274185 896.920105,218.171570 897.986206,216.635651 
	C906.444702,204.450592 909.005249,190.525391 909.941833,176.187729 
	C910.579163,166.431778 911.333191,156.607437 910.859314,146.870911 
	C909.912231,127.409103 910.432312,107.790474 905.998047,88.612465 
	C905.365112,85.874992 904.907166,83.042648 903.841248,80.472801 
	C902.346619,76.869339 899.520569,75.161293 895.484863,76.334122 
	C884.261230,79.595909 874.939270,85.920372 866.532776,93.902313 
	C857.417114,102.557632 849.577209,112.057816 844.508362,123.925308 
	C846.184143,113.110283 852.427429,104.518730 859.822510,96.860794 
	C865.991455,90.472534 872.429016,84.041969 879.777100,79.188866 
	C885.727295,75.258980 893.088196,73.243088 900.057373,71.162170 
	C904.166870,69.935112 906.312195,73.800766 907.330627,76.971855 
	C909.262695,82.987907 911.435425,89.173706 911.824158,95.394241 
	C913.255859,118.304550 914.743225,141.257935 914.743225,164.195114 
	C914.743286,180.000000 912.661987,195.919418 904.861206,210.247238 
	C902.616211,214.370789 899.422302,217.977753 896.352905,221.967896 
z"/>
<path fill="#2F2F41" opacity="1.000000" stroke="none" 
	d="
M302.991455,63.372101 
	C299.719543,70.512909 295.775757,72.926834 289.600586,71.990311 
	C285.292511,71.336960 281.524445,66.455360 281.002075,60.850788 
	C280.391907,54.304081 283.450317,48.246716 288.403656,46.191338 
	C294.207672,43.782978 302.602814,49.090488 302.975433,55.477081 
	C303.120209,57.958687 302.998718,60.455822 302.991455,63.372101 
z"/>
<path fill="#BF15E4" opacity="1.000000" stroke="none" 
	d="
M971.352905,162.967865 
	C972.211121,160.433014 972.902283,157.385727 974.629395,155.132568 
	C983.145142,144.023041 976.096436,132.411743 967.549683,126.159927 
	C961.585388,121.797142 956.111755,116.763489 950.418213,112.030426 
	C946.912964,109.116577 946.120911,105.008957 947.139038,101.112442 
	C948.854614,94.546967 950.470459,87.623619 957.735657,84.034241 
	C956.557373,86.715363 954.983337,89.378555 953.446411,92.062988 
	C947.790527,101.942261 951.826599,106.366714 958.047913,112.256386 
	C962.607117,116.572479 968.323120,119.683907 973.595093,123.225677 
	C981.207642,128.339844 984.612488,141.162552 980.107544,150.296066 
	C977.900391,154.770905 974.515381,158.664734 971.352905,162.967865 
z"/>
<path fill="#BF15E4" opacity="1.000000" stroke="none" 
	d="
M985.430481,73.901665 
	C984.996704,66.238792 976.590027,59.320087 969.040283,61.225761 
	C959.006958,63.758331 950.927002,69.429138 944.521362,77.642258 
	C940.898499,82.287422 936.780945,86.546715 932.526367,90.990158 
	C934.442871,87.340675 936.418579,83.446625 939.052551,80.065376 
	C946.620178,70.350693 954.681946,61.316574 967.328186,57.778454 
	C974.893677,55.661797 981.561646,57.549171 986.984497,62.064079 
	C989.091370,63.818233 988.471863,68.951820 988.805603,72.572578 
	C988.839905,72.944794 986.890503,73.499779 985.430481,73.901665 
z"/>
<path fill="#BF15E4" opacity="1.000000" stroke="none" 
	d="
M894.572571,191.149872 
	C893.575562,195.676620 892.620239,200.538300 890.856018,205.086166 
	C888.699890,210.644333 885.887390,215.839645 879.214111,217.463074 
	C875.350952,218.402893 872.079285,218.351395 869.422974,214.950958 
	C867.209595,212.117569 864.888245,209.366318 862.556641,206.628143 
	C860.743164,204.498474 858.747803,202.824432 855.508423,204.992218 
	C856.826111,201.932098 858.485718,198.863724 860.602295,194.950439 
	C863.104065,198.449860 864.878052,201.283768 867.007019,203.819672 
	C869.656372,206.975418 872.463074,210.029099 875.458679,212.854416 
	C877.761169,215.026077 884.285522,212.886688 886.574036,208.639740 
	C889.557556,203.103012 891.732605,197.130600 894.572571,191.149872 
z"/>
<path fill="#BF15E4" opacity="1.000000" stroke="none" 
	d="
M962.589233,143.119965 
	C962.532898,145.032837 962.824707,147.597900 961.698730,149.100540 
	C958.162720,153.819290 954.638367,158.360352 947.406799,158.252213 
	C943.257141,158.190155 939.069641,160.658066 934.532837,161.993805 
	C935.927856,157.049911 940.176697,153.692093 946.096680,154.128647 
	C954.641052,154.758743 958.912781,149.905792 962.589233,143.119965 
z"/>
<path fill="#BF15E4" opacity="1.000000" stroke="none" 
	d="
M959.364990,169.892914 
	C961.624146,168.276306 964.247803,166.719254 967.282715,165.295456 
	C965.039124,166.936646 962.384277,168.444565 959.364990,169.892914 
z"/>
<path fill="#BF15E4" opacity="1.000000" stroke="none" 
	d="
M886.351746,154.968414 
	C886.014893,151.515381 887.869873,149.559128 891.734741,149.033905 
	C890.296509,150.969177 888.478821,152.895905 886.351746,154.968414 
z"/>
<path fill="#BF15E4" opacity="1.000000" stroke="none" 
	d="
M876.355957,160.893494 
	C877.303223,159.944305 878.605896,159.055222 880.302124,158.302185 
	C879.367493,159.276688 878.039429,160.115143 876.355957,160.893494 
z"/>
<path fill="#BF15E4" opacity="1.000000" stroke="none" 
	d="
M960.339478,81.978844 
	C960.666321,81.145584 961.290344,80.176895 962.314331,79.323608 
	C962.021667,80.240486 961.329102,81.041954 960.339478,81.978844 
z"/>
<path fill="#BF15E4" opacity="1.000000" stroke="none" 
	d="
M884.602661,231.533966 
	C884.802307,230.823486 885.328308,230.017136 886.278564,229.309235 
	C886.111572,230.084488 885.520325,230.761292 884.602661,231.533966 
z"/>
<path fill="#BF15E4" opacity="1.000000" stroke="none" 
	d="
M887.602661,229.533966 
	C887.802246,228.823471 888.328247,228.017136 889.278564,227.309250 
	C889.111633,228.084503 888.520325,228.761307 887.602661,229.533966 
z"/>
<path fill="#BF15E4" opacity="1.000000" stroke="none" 
	d="
M881.340027,232.893372 
	C881.662720,232.287415 882.323669,231.741440 883.342163,231.322006 
	C883.025940,231.950150 882.352112,232.451752 881.340027,232.893372 
z"/>
<path fill="#BF15E4" opacity="1.000000" stroke="none" 
	d="
M895.613159,187.089447 
	C895.839661,187.607376 895.789307,188.261002 895.452759,188.956482 
	C895.223145,188.407257 895.279724,187.816177 895.613159,187.089447 
z"/>
<path fill="#BF15E4" opacity="1.000000" stroke="none" 
	d="
M896.613159,183.089447 
	C896.839661,183.607376 896.789368,184.261002 896.452759,184.956482 
	C896.223145,184.407257 896.279785,183.816193 896.613159,183.089447 
z"/>
<path fill="#BF15E4" opacity="1.000000" stroke="none" 
	d="
M897.613159,178.089447 
	C897.839661,178.607376 897.789307,179.261002 897.452759,179.956482 
	C897.223145,179.407257 897.279724,178.816177 897.613159,178.089447 
z"/>
<path fill="#BF15E4" opacity="1.000000" stroke="none" 
	d="
M881.602661,158.533966 
	C881.802307,157.823502 882.328308,157.017151 883.278564,156.309250 
	C883.111572,157.084488 882.520325,157.761292 881.602661,158.533966 
z"/>
<path fill="#BF15E4" opacity="1.000000" stroke="none" 
	d="
M963.611816,79.587173 
	C963.761963,78.976654 964.203064,78.283676 964.846191,77.849243 
	C964.666443,78.573433 964.284546,79.039078 963.611816,79.587173 
z"/>
<path fill="#FFFFFF" opacity="1.000000" stroke="none" 
	d="
M872.719604,112.779480 
	C878.325623,107.853859 883.673096,103.179100 889.262207,98.293037 
	C892.905518,103.915512 893.942932,108.578621 891.991150,113.808662 
	C888.375916,123.496201 884.685974,133.153046 876.976196,140.479599 
	C871.823425,145.376282 867.412476,145.207428 864.166748,139.258774 
	C862.778015,136.713440 863.743286,132.717010 864.089172,129.427261 
	C864.770508,122.945274 868.195496,117.745163 872.719604,112.779480 
z"/>
<path fill="#FFFFFF" opacity="1.000000" stroke="none" 
	d="
M542.000244,119.227737 
	C542.668640,112.755753 542.891418,106.660027 544.197205,100.805840 
	C544.828186,97.977066 547.009644,94.830849 549.422852,93.313240 
	C550.855286,92.412399 555.051514,93.656013 556.320129,95.264412 
	C558.298584,97.772743 559.607361,101.351532 559.855774,104.580154 
	C560.590393,114.126167 561.074219,123.732643 560.844421,133.295975 
	C560.710327,138.875320 559.588806,144.610489 557.786499,149.891586 
	C556.933594,152.390778 553.566162,155.327057 551.103088,155.557739 
	C549.246094,155.731659 545.565979,152.146805 545.202515,149.840271 
	C543.632080,139.873856 542.983826,129.762146 542.000244,119.227737 
z"/>
<path fill="#FFFFFF" opacity="1.000000" stroke="none" 
	d="
M216.000122,142.750305 
	C216.342285,139.235794 216.380585,136.091827 217.089249,133.107010 
	C218.633621,126.602486 223.472046,124.317322 232.997696,125.459686 
	C232.997696,133.528152 233.109116,141.654678 232.865479,149.770554 
	C232.832733,150.861649 231.068085,152.733047 230.005768,152.806747 
	C226.658249,153.039001 222.490402,153.713837 220.107346,152.078796 
	C217.794754,150.492096 217.295715,146.262161 216.000122,142.750305 
z"/>
<path fill="#FFFFFF" opacity="1.000000" stroke="none" 
	d="
M373.599487,170.945221 
	C373.966980,171.467392 374.120056,171.735016 374.650574,171.979584 
	C377.453796,178.047684 376.071899,183.274963 370.078705,187.286346 
	C364.202576,191.219376 350.130096,193.143250 343.496765,187.150284 
	C340.573334,184.509094 338.967010,181.652954 340.851929,177.482651 
	C342.667664,173.465424 343.807373,168.818314 349.391754,169.062088 
	C357.350769,169.409500 365.291229,170.182617 373.599487,170.945221 
z"/>
<path fill="#2F2F41" opacity="1.000000" stroke="none" 
	d="
M355.000000,89.000000 
	C356.447937,88.353844 357.935638,87.091461 359.335999,87.181923 
	C362.933136,87.414268 366.474762,88.503296 370.071960,88.738312 
	C372.066589,88.868622 374.130524,87.644363 376.158783,87.658661 
	C377.435730,87.667664 379.699066,88.692673 379.819489,89.511856 
	C380.776428,96.021942 381.763428,102.582291 381.908661,109.145638 
	C382.209198,122.725800 377.843781,128.451431 364.404907,132.605316 
	C371.082092,122.610268 371.057678,112.035606 367.814331,101.166763 
	C367.116638,98.828629 366.676147,95.658302 362.611694,95.949554 
	C361.881256,95.279182 361.420471,94.698051 360.965942,93.720917 
	C360.927948,89.195450 358.265228,88.681725 355.000000,89.000000 
z"/>
<path fill="#2F2F41" opacity="1.000000" stroke="none" 
	d="
M337.592072,133.159653 
	C337.397552,132.212845 337.599701,130.864639 337.049072,130.390381 
	C328.793121,123.279282 330.600616,114.172577 331.996399,105.207397 
	C333.441132,95.927979 338.873169,90.467949 348.571320,89.363243 
	C342.629395,97.370193 343.328186,106.567032 344.342682,115.312958 
	C344.892548,120.053642 345.870056,125.953690 351.943542,128.452576 
	C352.649994,130.540421 353.324982,132.270218 354.000000,134.000000 
	C349.773895,134.194778 345.548462,134.483322 341.321136,134.514648 
	C340.334045,134.521988 339.340454,133.656540 337.983154,133.224182 
	C337.616455,133.255737 337.638611,133.164749 337.592072,133.159653 
z"/>
<path fill="#2F2F41" opacity="1.000000" stroke="none" 
	d="
M329.578613,188.153244 
	C327.859528,182.160553 330.100616,178.219788 335.224976,175.002350 
	C338.032959,186.386246 343.427063,194.973801 356.395691,195.127975 
	C356.295837,195.899643 356.254608,196.460953 356.218811,196.460602 
	C347.339996,196.374680 338.528503,195.915268 330.858398,190.641144 
	C330.274902,190.239914 330.100555,189.243637 329.578613,188.153244 
z"/>
<path fill="#2F2F41" opacity="1.000000" stroke="none" 
	d="
M354.436829,134.000000 
	C353.324982,132.270218 352.649994,130.540421 351.983795,128.408569 
	C351.992584,128.006500 352.073700,127.918991 352.467194,127.963280 
	C358.087769,129.951965 362.202301,128.448700 363.759918,123.430878 
	C366.606506,114.260620 367.209778,105.038132 362.881378,96.038780 
	C366.676147,95.658302 367.116638,98.828629 367.814331,101.166763 
	C371.057678,112.035606 371.082092,122.610268 364.036957,132.644775 
	C360.957886,133.333328 357.915771,133.666672 354.436829,134.000000 
z"/>
<path fill="#2F2F41" opacity="1.000000" stroke="none" 
	d="
M351.952332,128.050507 
	C345.870056,125.953690 344.892548,120.053642 344.342682,115.312958 
	C343.328186,106.567032 342.629395,97.370193 348.962708,89.356384 
	C350.714355,89.000000 352.428711,89.000000 354.571533,89.000000 
	C358.265228,88.681725 360.927948,89.195450 360.602234,93.545441 
	C354.269592,92.162186 350.423676,93.380936 349.387146,98.315399 
	C347.278290,108.354637 346.069672,118.523087 352.073700,127.918991 
	C352.073700,127.918991 351.992584,128.006500 351.952332,128.050507 
z"/>
<path fill="#2F2F41" opacity="1.000000" stroke="none" 
	d="
M363.392639,194.954437 
	C363.790009,194.711945 364.185364,194.713654 364.578491,194.743973 
	C364.589539,194.744812 364.577057,195.051254 364.575562,195.215210 
	C364.180481,195.211029 363.785370,195.206833 363.392639,194.954437 
z"/>
<path fill="#FFFFFF" opacity="1.000000" stroke="none" 
	d="
M352.467194,127.963280 
	C346.069672,118.523087 347.278290,108.354637 349.387146,98.315399 
	C350.423676,93.380936 354.269592,92.162186 360.596008,93.941437 
	C361.420471,94.698051 361.881256,95.279182 362.611694,95.949554 
	C367.209778,105.038132 366.606506,114.260620 363.759918,123.430878 
	C362.202301,128.448700 358.087769,129.951965 352.467194,127.963280 
z"/>
</svg>