<svg version="1.1" id="Layer_1" xmlns="http://www.w3.org/2000/svg" xmlns:xlink="http://www.w3.org/1999/xlink" x="0px" y="0px"
	 width="100%" viewBox="0 0 133 133" enable-background="new 0 0 133 133" xml:space="preserve">
<path fill="#E52720" opacity="1.000000" stroke="none" 
	d="
M90.000000,134.000000 
	C60.027744,134.000000 30.555490,134.000000 1.041617,134.000000 
	C1.041617,89.736137 1.041617,45.472233 1.041617,1.104161 
	C45.221981,1.104161 89.444290,1.104161 133.833298,1.104161 
	C133.833298,45.332813 133.833298,89.666359 133.833298,134.000000 
	C119.472649,134.000000 104.986320,134.000000 90.000000,134.000000 
M49.165073,111.221222 
	C50.131878,115.256218 50.836491,119.384392 52.218018,123.272003 
	C52.658432,124.511330 54.902061,125.818855 56.310104,125.807388 
	C57.739059,125.795746 59.586231,124.488426 60.461372,123.208977 
	C61.431351,121.790833 61.952057,119.748543 61.900517,118.000671 
	C61.597504,107.724510 61.355789,97.430435 60.476524,87.195389 
	C60.130608,83.168747 61.468605,80.831802 64.891548,80.094048 
	C70.800003,78.820580 76.840065,78.157715 83.236549,77.175446 
	C83.570145,80.995964 83.658875,83.649879 84.057014,86.256538 
	C85.134300,93.309753 86.053780,100.407745 87.612068,107.358795 
	C88.495827,111.301025 93.157639,113.098259 95.089363,110.358398 
	C97.379448,107.110283 99.181534,102.746399 99.204826,98.854179 
	C99.239052,93.135262 97.510857,87.405609 96.531425,81.680885 
	C95.920937,78.112602 96.275940,75.469696 99.731003,72.779770 
	C102.126167,70.915016 102.986473,66.601501 103.594955,63.213699 
	C103.774574,62.213676 100.838440,59.642754 99.195343,59.514164 
	C94.037537,59.110500 93.557930,55.969540 92.824509,51.852215 
	C90.641937,39.599606 88.023834,27.420557 85.354042,15.261482 
	C84.651657,12.062594 82.619270,8.520652 78.930176,10.302799 
	C76.885361,11.290620 75.399399,15.160377 75.204575,17.843178 
	C74.921295,21.743975 76.014847,25.748116 76.549858,29.704325 
	C77.969269,40.200420 79.403992,50.694443 80.934029,61.934196 
	C73.504120,63.957130 66.476570,65.870514 59.162945,67.861778 
	C58.300690,61.157146 57.830807,55.844334 56.896027,50.614616 
	C55.406307,42.280212 53.903149,33.926167 51.827015,25.726950 
	C50.594212,20.858271 46.220421,20.191126 43.596539,24.505672 
	C42.028854,27.083477 41.381012,30.726431 41.603390,33.797642 
	C42.465538,45.704678 43.842510,57.574436 45.025562,69.435593 
	C33.381935,71.305359 30.312248,73.151985 31.222183,78.172485 
	C31.678839,80.692047 32.856617,84.661476 34.461243,85.078590 
	C38.356651,86.091194 42.692898,85.407921 47.041645,85.407921 
	C47.733112,93.812004 48.412815,102.073151 49.165073,111.221222 
z"/>
<path fill="#FEFBFB" opacity="1.000000" stroke="none" 
	d="
M49.128799,110.777756 
	C48.412815,102.073151 47.733112,93.812004 47.041645,85.407921 
	C42.692898,85.407921 38.356651,86.091194 34.461243,85.078590 
	C32.856617,84.661476 31.678839,80.692047 31.222183,78.172485 
	C30.312248,73.151985 33.381935,71.305359 45.025562,69.435593 
	C43.842510,57.574436 42.465538,45.704678 41.603390,33.797642 
	C41.381012,30.726431 42.028854,27.083477 43.596539,24.505672 
	C46.220421,20.191126 50.594212,20.858271 51.827015,25.726950 
	C53.903149,33.926167 55.406307,42.280212 56.896027,50.614616 
	C57.830807,55.844334 58.300690,61.157146 59.162945,67.861778 
	C66.476570,65.870514 73.504120,63.957130 80.934029,61.934196 
	C79.403992,50.694443 77.969269,40.200420 76.549858,29.704325 
	C76.014847,25.748116 74.921295,21.743975 75.204575,17.843178 
	C75.399399,15.160377 76.885361,11.290620 78.930176,10.302799 
	C82.619270,8.520652 84.651657,12.062594 85.354042,15.261482 
	C88.023834,27.420557 90.641937,39.599606 92.824509,51.852215 
	C93.557930,55.969540 94.037537,59.110500 99.195343,59.514164 
	C100.838440,59.642754 103.774574,62.213676 103.594955,63.213699 
	C102.986473,66.601501 102.126167,70.915016 99.731003,72.779770 
	C96.275940,75.469696 95.920937,78.112602 96.531425,81.680885 
	C97.510857,87.405609 99.239052,93.135262 99.204826,98.854179 
	C99.181534,102.746399 97.379448,107.110283 95.089363,110.358398 
	C93.157639,113.098259 88.495827,111.301025 87.612068,107.358795 
	C86.053780,100.407745 85.134300,93.309753 84.057014,86.256538 
	C83.658875,83.649879 83.570145,80.995964 83.236549,77.175446 
	C76.840065,78.157715 70.800003,78.820580 64.891548,80.094048 
	C61.468605,80.831802 60.130608,83.168747 60.476524,87.195389 
	C61.355789,97.430435 61.597504,107.724510 61.900517,118.000671 
	C61.952057,119.748543 61.431351,121.790833 60.461372,123.208977 
	C59.586231,124.488426 57.739059,125.795746 56.310104,125.807388 
	C54.902061,125.818855 52.658432,124.511330 52.218018,123.272003 
	C50.836491,119.384392 50.131878,115.256218 49.128799,110.777756 
z"/>
</svg>