<svg version="1.1" id="Layer_1" xmlns="http://www.w3.org/2000/svg" xmlns:xlink="http://www.w3.org/1999/xlink" x="0px" y="0px"
	 width="100%" viewBox="0 0 133 133" enable-background="new 0 0 133 133" xml:space="preserve">
<path fill="#BF16E4" opacity="1.000000" stroke="none" 
	d="
M90.000000,134.000000 
	C60.027744,134.000000 30.555490,134.000000 1.041617,134.000000 
	C1.041617,89.736137 1.041617,45.472233 1.041617,1.104161 
	C45.221981,1.104161 89.444290,1.104161 133.833298,1.104161 
	C133.833298,45.332813 133.833298,89.666359 133.833298,134.000000 
	C119.472649,134.000000 104.986320,134.000000 90.000000,134.000000 
M49.169098,111.222542 
	C50.077385,115.102020 50.680943,119.093979 52.050201,122.803299 
	C52.567715,124.205238 54.866592,125.790482 56.330570,125.768478 
	C57.830147,125.745956 59.655998,124.116066 60.679359,122.709694 
	C61.584160,121.466240 61.968128,119.549828 61.916386,117.952087 
	C61.583607,107.675804 61.304562,97.386543 60.486565,87.143166 
	C60.190701,83.438263 61.245094,80.979225 64.512352,80.255341 
	C70.539421,78.919983 76.703209,78.201653 83.274948,77.151978 
	C83.612282,81.335251 83.667450,84.161377 84.097443,86.929276 
	C85.167061,93.814507 86.215424,100.716064 87.730728,107.508797 
	C88.059685,108.983414 90.272400,110.977592 91.683861,111.032730 
	C93.442696,111.101425 95.907654,109.854851 96.938148,108.384544 
	C99.218933,105.130333 100.369690,101.594788 99.135864,97.166122 
	C97.586563,91.605148 97.156281,85.724541 96.356079,79.966171 
	C95.976730,77.236343 96.880997,75.434608 99.179596,73.280388 
	C101.642509,70.972176 103.140663,66.888786 103.467224,63.429783 
	C103.590363,62.125530 99.088379,60.591743 97.003113,58.803158 
	C95.468956,57.487270 93.681297,55.739479 93.313568,53.920006 
	C91.897964,46.915703 91.290657,39.746548 89.839882,32.751286 
	C88.493958,26.261539 86.721397,19.822838 84.540329,13.569673 
	C83.984756,11.976833 81.153503,10.266613 79.392738,10.292668 
	C77.976280,10.313629 75.814140,12.675084 75.387314,14.354905 
	C74.762962,16.812119 75.189262,19.615177 75.526749,22.224407 
	C77.084831,34.270351 78.801765,46.295788 80.347214,58.343269 
	C80.488785,59.446941 80.140434,61.415150 79.475792,61.696278 
	C72.981224,64.443359 66.465248,67.345001 59.035847,66.852821 
	C58.608421,63.357941 58.385365,60.361309 57.856323,57.419712 
	C55.974514,46.956505 54.104641,36.487644 51.920074,26.086065 
	C51.582050,24.476593 49.623440,22.056126 48.410042,22.053616 
	C46.621685,22.049913 44.209175,23.477514 43.196766,25.033514 
	C41.944729,26.957808 41.335438,29.645964 41.373596,31.989025 
	C41.443748,36.296417 42.229237,40.589016 42.646519,44.894569 
	C43.442528,53.107929 44.189331,61.326057 44.954227,69.517242 
	C33.750401,70.969223 30.416014,72.919785 31.243767,77.952431 
	C31.682558,80.620247 32.909695,84.733650 34.679928,85.279617 
	C38.375957,86.419525 42.668678,85.624733 47.045528,85.624733 
	C47.725861,93.827759 48.410423,102.081779 49.169098,111.222542 
z"/>
<path fill="#FDFBFE" opacity="1.000000" stroke="none" 
	d="
M49.132042,110.779175 
	C48.410423,102.081779 47.725861,93.827759 47.045528,85.624733 
	C42.668678,85.624733 38.375957,86.419525 34.679928,85.279617 
	C32.909695,84.733650 31.682558,80.620247 31.243767,77.952431 
	C30.416014,72.919785 33.750401,70.969223 44.954227,69.517242 
	C44.189331,61.326057 43.442528,53.107929 42.646519,44.894569 
	C42.229237,40.589016 41.443748,36.296417 41.373596,31.989025 
	C41.335438,29.645964 41.944729,26.957808 43.196766,25.033514 
	C44.209175,23.477514 46.621685,22.049913 48.410042,22.053616 
	C49.623440,22.056126 51.582050,24.476593 51.920074,26.086065 
	C54.104641,36.487644 55.974514,46.956505 57.856323,57.419712 
	C58.385365,60.361309 58.608421,63.357941 59.035847,66.852821 
	C66.465248,67.345001 72.981224,64.443359 79.475792,61.696278 
	C80.140434,61.415150 80.488785,59.446941 80.347214,58.343269 
	C78.801765,46.295788 77.084831,34.270351 75.526749,22.224407 
	C75.189262,19.615177 74.762962,16.812119 75.387314,14.354905 
	C75.814140,12.675084 77.976280,10.313629 79.392738,10.292668 
	C81.153503,10.266613 83.984756,11.976833 84.540329,13.569673 
	C86.721397,19.822838 88.493958,26.261539 89.839882,32.751286 
	C91.290657,39.746548 91.897964,46.915703 93.313568,53.920006 
	C93.681297,55.739479 95.468956,57.487270 97.003113,58.803158 
	C99.088379,60.591743 103.590363,62.125530 103.467224,63.429783 
	C103.140663,66.888786 101.642509,70.972176 99.179596,73.280388 
	C96.880997,75.434608 95.976730,77.236343 96.356079,79.966171 
	C97.156281,85.724541 97.586563,91.605148 99.135864,97.166122 
	C100.369690,101.594788 99.218933,105.130333 96.938148,108.384544 
	C95.907654,109.854851 93.442696,111.101425 91.683861,111.032730 
	C90.272400,110.977592 88.059685,108.983414 87.730728,107.508797 
	C86.215424,100.716064 85.167061,93.814507 84.097443,86.929276 
	C83.667450,84.161377 83.612282,81.335251 83.274948,77.151978 
	C76.703209,78.201653 70.539421,78.919983 64.512352,80.255341 
	C61.245094,80.979225 60.190701,83.438263 60.486565,87.143166 
	C61.304562,97.386543 61.583607,107.675804 61.916386,117.952087 
	C61.968128,119.549828 61.584160,121.466240 60.679359,122.709694 
	C59.655998,124.116066 57.830147,125.745956 56.330570,125.768478 
	C54.866592,125.790482 52.567715,124.205238 52.050201,122.803299 
	C50.680943,119.093979 50.077385,115.102020 49.132042,110.779175 
z"/>
</svg>